<svg width="1280" height="784" viewBox="0 0 1280 784" fill="none" xmlns="http://www.w3.org/2000/svg">
<rect y="53" width="1280" height="731" fill="white"/>
<g filter="url(#filter0_di_288_366)">
<path d="M0 10C0 4.47715 4.47715 0 10 0H1270C1275.52 0 1280 4.47715 1280 10V53H0V10Z" fill="white"/>
<g clip-path="url(#clip0_288_366)">
<path d="M1128.5 34.4736C1133.13 34.4736 1136.97 30.6304 1136.97 26.0068C1136.97 21.375 1133.12 17.54 1128.49 17.54C1123.87 17.54 1120.03 21.375 1120.03 26.0068C1120.03 30.6304 1123.88 34.4736 1128.5 34.4736ZM1128.5 33.0625C1124.58 33.0625 1121.45 29.9248 1121.45 26.0068C1121.45 22.0889 1124.57 18.9512 1128.49 18.9512C1132.41 18.9512 1135.55 22.0889 1135.56 26.0068C1135.56 29.9248 1132.42 33.0625 1128.5 33.0625ZM1128.5 21.7817C1128.14 21.7817 1127.88 22.0391 1127.88 22.4043V26.5547L1127.94 28.3062L1127.11 27.3101L1126.13 26.314C1126.01 26.2061 1125.86 26.1313 1125.69 26.1313C1125.35 26.1313 1125.09 26.397 1125.09 26.729C1125.09 26.9033 1125.14 27.0527 1125.25 27.1606L1128.02 29.9248C1128.18 30.0908 1128.33 30.1572 1128.5 30.1572C1128.68 30.1572 1128.83 30.0825 1128.99 29.9248L1131.75 27.1606C1131.86 27.0527 1131.93 26.9033 1131.93 26.729C1131.93 26.397 1131.66 26.1313 1131.32 26.1313C1131.14 26.1313 1130.99 26.1978 1130.88 26.314L1129.9 27.3101L1129.06 28.3145L1129.12 26.5547V22.4043C1129.12 22.0391 1128.87 21.7817 1128.5 21.7817Z" fill="#737373"/>
<path d="M1169.5 28.2646C1169.86 28.2646 1170.16 27.9658 1170.16 27.6172V19.0923L1170.11 17.8472L1170.67 18.4365L1171.92 19.7812C1172.04 19.9141 1172.21 19.9805 1172.37 19.9805C1172.72 19.9805 1172.98 19.7314 1172.98 19.3911C1172.98 19.2168 1172.91 19.084 1172.79 18.9595L1169.98 16.2534C1169.82 16.0874 1169.67 16.0293 1169.5 16.0293C1169.33 16.0293 1169.18 16.0874 1169.02 16.2534L1166.21 18.9595C1166.09 19.084 1166.01 19.2168 1166.01 19.3911C1166.01 19.7314 1166.27 19.9805 1166.61 19.9805C1166.78 19.9805 1166.95 19.9141 1167.07 19.7812L1168.33 18.4365L1168.89 17.8472L1168.84 19.0923V27.6172C1168.84 27.9658 1169.14 28.2646 1169.5 28.2646ZM1164.74 34.7642H1174.26C1175.99 34.7642 1176.86 33.9009 1176.86 32.1909V23.9067C1176.86 22.1968 1175.99 21.3335 1174.26 21.3335H1171.94V22.6699H1174.23C1175.05 22.6699 1175.53 23.1182 1175.53 23.9814V32.1162C1175.53 32.9795 1175.05 33.4277 1174.23 33.4277H1164.75C1163.92 33.4277 1163.47 32.9795 1163.47 32.1162V23.9814C1163.47 23.1182 1163.92 22.6699 1164.75 22.6699H1167.05V21.3335H1164.74C1163 21.3335 1162.13 22.1968 1162.13 23.9067V32.1909C1162.13 33.9009 1163 34.7642 1164.74 34.7642Z" fill="#737373"/>
<path d="M1210.5 33.0044C1210.91 33.0044 1211.25 32.6807 1211.25 32.2822V26.7622H1216.61C1217.01 26.7622 1217.35 26.4219 1217.35 26.0151C1217.35 25.6084 1217.01 25.2764 1216.61 25.2764H1211.25V19.748C1211.25 19.3496 1210.91 19.0259 1210.5 19.0259C1210.09 19.0259 1209.76 19.3496 1209.76 19.748V25.2764H1204.39C1203.99 25.2764 1203.65 25.6084 1203.65 26.0151C1203.65 26.4219 1203.99 26.7622 1204.39 26.7622H1209.76V32.2822C1209.76 32.6807 1210.09 33.0044 1210.5 33.0044Z" fill="#737373"/>
<path d="M1245.32 30.8711H1246.74V32.1411C1246.74 33.8511 1247.61 34.7144 1249.35 34.7144H1257.68C1259.41 34.7144 1260.28 33.8511 1260.28 32.1411V23.7407C1260.28 22.0308 1259.41 21.1675 1257.68 21.1675H1256.26V19.8975C1256.26 18.1875 1255.38 17.3242 1253.66 17.3242H1245.32C1243.58 17.3242 1242.72 18.1875 1242.72 19.8975V28.2979C1242.72 30.0078 1243.58 30.8711 1245.32 30.8711ZM1245.34 29.5347C1244.51 29.5347 1244.05 29.0864 1244.05 28.2231V19.9722C1244.05 19.1089 1244.51 18.6606 1245.34 18.6606H1253.63C1254.46 18.6606 1254.92 19.1089 1254.92 19.9722V21.1675H1249.35C1247.61 21.1675 1246.74 22.0225 1246.74 23.7407V29.5347H1245.34ZM1249.37 33.3779C1248.54 33.3779 1248.08 32.9297 1248.08 32.0664V23.8154C1248.08 22.9521 1248.54 22.5039 1249.37 22.5039H1257.66C1258.48 22.5039 1258.95 22.9521 1258.95 23.8154V32.0664C1258.95 32.9297 1258.48 33.3779 1257.66 33.3779H1249.37Z" fill="#737373"/>
</g>
<g clip-path="url(#clip1_288_366)">
<path d="M153.265 32.9878L146.682 26.563C146.524 26.4053 146.441 26.2144 146.441 26.0068C146.441 25.791 146.533 25.5835 146.69 25.4507L153.265 19.0176C153.406 18.8765 153.588 18.7935 153.804 18.7935C154.236 18.7935 154.56 19.1255 154.56 19.5571C154.56 19.7563 154.477 19.9556 154.344 20.0967L148.301 26.0068L154.344 31.917C154.477 32.0581 154.56 32.249 154.56 32.4565C154.56 32.8882 154.236 33.2119 153.804 33.2119C153.588 33.2119 153.406 33.1289 153.265 32.9878Z" fill="#737373"/>
<path d="M180.197 33.2202C180.413 33.2202 180.595 33.1372 180.736 32.9961L187.319 26.563C187.477 26.4053 187.56 26.2144 187.56 26.0068C187.56 25.791 187.477 25.5918 187.319 25.4507L180.745 19.0259C180.595 18.8765 180.413 18.7935 180.197 18.7935C179.765 18.7935 179.441 19.1255 179.441 19.5571C179.441 19.7563 179.524 19.9556 179.657 20.0967L185.7 26.0068L179.657 31.917C179.524 32.0581 179.441 32.249 179.441 32.4565C179.441 32.8882 179.765 33.2202 180.197 33.2202Z" fill="#BFBFBF"/>
</g>
<path d="M101.319 33.6602H115.68C117.423 33.6602 118.286 32.7969 118.286 31.0869V20.9517C118.286 19.2417 117.423 18.3784 115.68 18.3784H101.319C99.5845 18.3784 98.7129 19.2334 98.7129 20.9517V31.0869C98.7129 32.8052 99.5845 33.6602 101.319 33.6602ZM101.336 32.3237C100.506 32.3237 100.049 31.8838 100.049 31.0205V21.0181C100.049 20.1548 100.506 19.7148 101.336 19.7148H105.038V32.3237H101.336ZM115.663 19.7148C116.485 19.7148 116.95 20.1548 116.95 21.0181V31.0205C116.95 31.8838 116.485 32.3237 115.663 32.3237H106.341V19.7148H115.663ZM103.436 22.7944C103.693 22.7944 103.909 22.5703 103.909 22.3296C103.909 22.0806 103.693 21.8647 103.436 21.8647H101.66C101.411 21.8647 101.187 22.0806 101.187 22.3296C101.187 22.5703 101.411 22.7944 101.66 22.7944H103.436ZM103.436 24.9443C103.693 24.9443 103.909 24.7202 103.909 24.4712C103.909 24.2222 103.693 24.0146 103.436 24.0146H101.66C101.411 24.0146 101.187 24.2222 101.187 24.4712C101.187 24.7202 101.411 24.9443 101.66 24.9443H103.436ZM103.436 27.0859C103.693 27.0859 103.909 26.8784 103.909 26.6294C103.909 26.3804 103.693 26.1646 103.436 26.1646H101.66C101.411 26.1646 101.187 26.3804 101.187 26.6294C101.187 26.8784 101.411 27.0859 101.66 27.0859H103.436Z" fill="#737373"/>
<g filter="url(#filter1_i_288_366)">
<path fill-rule="evenodd" clip-rule="evenodd" d="M27 32C30.3137 32 33 29.3137 33 26C33 22.6863 30.3137 20 27 20C23.6863 20 21 22.6863 21 26C21 29.3137 23.6863 32 27 32Z" fill="#EE6A5F"/>
</g>
<path d="M32.75 26C32.75 29.1756 30.1756 31.75 27 31.75C23.8244 31.75 21.25 29.1756 21.25 26C21.25 22.8244 23.8244 20.25 27 20.25C30.1756 20.25 32.75 22.8244 32.75 26Z" stroke="#CE5347" stroke-width="0.5"/>
<g filter="url(#filter2_i_288_366)">
<path fill-rule="evenodd" clip-rule="evenodd" d="M47 32C50.3137 32 53 29.3137 53 26C53 22.6863 50.3137 20 47 20C43.6863 20 41 22.6863 41 26C41 29.3137 43.6863 32 47 32Z" fill="#F5BD4F"/>
</g>
<path d="M52.75 26C52.75 29.1756 50.1756 31.75 47 31.75C43.8244 31.75 41.25 29.1756 41.25 26C41.25 22.8244 43.8244 20.25 47 20.25C50.1756 20.25 52.75 22.8244 52.75 26Z" stroke="#D6A243" stroke-width="0.5"/>
<g filter="url(#filter3_i_288_366)">
<path fill-rule="evenodd" clip-rule="evenodd" d="M67 32C70.3137 32 73 29.3137 73 26C73 22.6863 70.3137 20 67 20C63.6863 20 61 22.6863 61 26C61 29.3137 63.6863 32 67 32Z" fill="#61C454"/>
</g>
<path d="M72.75 26C72.75 29.1756 70.1756 31.75 67 31.75C63.8244 31.75 61.25 29.1756 61.25 26C61.25 22.8244 63.8244 20.25 67 20.25C70.1756 20.25 72.75 22.8244 72.75 26Z" stroke="#58A942" stroke-width="0.5"/>
<g clip-path="url(#clip2_288_366)">
<path d="M356.5 34.6147C356.632 34.6147 356.848 34.5649 357.056 34.4487C361.779 31.8008 363.397 30.6802 363.397 27.6504V21.3003C363.397 20.4287 363.024 20.1548 362.318 19.856C361.339 19.4492 358.176 18.312 357.197 17.9717C356.973 17.897 356.732 17.8472 356.5 17.8472C356.267 17.8472 356.026 17.9136 355.811 17.9717C354.831 18.2539 351.66 19.4575 350.681 19.856C349.983 20.1465 349.602 20.4287 349.602 21.3003V27.6504C349.602 30.6802 351.229 31.7925 355.943 34.4487C356.159 34.5649 356.367 34.6147 356.5 34.6147ZM356.832 19.2583C358.085 19.7563 360.517 20.6362 361.804 21.0762C362.028 21.1592 362.078 21.2754 362.078 21.5576V27.3433C362.078 29.9082 360.849 30.5806 357.014 32.9131C356.773 33.0625 356.641 33.104 356.508 33.1123V19.1836C356.591 19.1836 356.699 19.2085 356.832 19.2583Z" fill="#737373"/>
<rect x="382" y="12" width="516" height="28" rx="6" fill="black" fill-opacity="0.05"/>
<g clip-path="url(#clip3_288_366)">
<path d="M548.211 31.7158H553.789C554.545 31.7158 554.914 31.3408 554.914 30.5205V26.2197C554.914 25.4814 554.609 25.1006 553.982 25.0361V23.5596C553.982 21.3506 552.535 20.2842 551 20.2842C549.465 20.2842 548.018 21.3506 548.018 23.5596V25.0654C547.443 25.1533 547.086 25.5283 547.086 26.2197V30.5205C547.086 31.3408 547.455 31.7158 548.211 31.7158ZM548.961 23.4365C548.961 21.9658 549.904 21.1865 551 21.1865C552.096 21.1865 553.039 21.9658 553.039 23.4365V25.0303L548.961 25.0361V23.4365Z" fill="#9E9E9E"/>
<path d="M564.893 30.6504C562.787 30.6572 561.502 29.0508 561.502 26.8223C561.502 24.5664 562.849 22.9805 564.865 22.9805C566.444 22.9805 567.634 23.917 567.818 25.3184H566.643C566.472 24.6416 565.884 24.0195 564.893 24.0195C563.566 24.0195 562.685 25.1133 562.678 26.7812C562.685 28.4971 563.546 29.5977 564.893 29.5977C565.768 29.5977 566.438 29.126 566.643 28.3125H567.818C567.634 29.6387 566.54 30.6572 564.893 30.6504ZM570.443 20.6016V30.5H569.268V20.6016H570.443ZM572.316 30.5V23.0762H573.492V30.5H572.316ZM572.084 21.0664C572.077 20.6289 572.453 20.2803 572.904 20.2871C573.355 20.2803 573.731 20.6289 573.738 21.0664C573.731 21.4971 573.355 21.8457 572.904 21.8457C572.453 21.8457 572.077 21.4971 572.084 21.0664ZM576.541 26.043V30.5H575.365V23.0762H576.5V24.2383H576.596C576.944 23.4795 577.642 22.9805 578.77 22.9805C580.273 22.9805 581.278 23.8965 581.271 25.7832V30.5H580.096V25.8652C580.096 24.7168 579.467 24.0332 578.414 24.0332C577.334 24.0332 576.541 24.7578 576.541 26.043ZM583.158 30.5V23.0762H584.334V30.5H583.158ZM582.926 21.0664C582.919 20.6289 583.295 20.2803 583.746 20.2871C584.197 20.2803 584.573 20.6289 584.58 21.0664C584.573 21.4971 584.197 21.8457 583.746 21.8457C583.295 21.8457 582.919 21.4971 582.926 21.0664ZM589.242 30.6504C587.137 30.6572 585.852 29.0508 585.852 26.8223C585.852 24.5664 587.198 22.9805 589.215 22.9805C590.794 22.9805 591.983 23.917 592.168 25.3184H590.992C590.821 24.6416 590.233 24.0195 589.242 24.0195C587.916 24.0195 587.034 25.1133 587.027 26.7812C587.034 28.4971 587.896 29.5977 589.242 29.5977C590.117 29.5977 590.787 29.126 590.992 28.3125H592.168C591.983 29.6387 590.89 30.6572 589.242 30.6504ZM594.451 30.582C593.973 30.5752 593.562 30.1787 593.576 29.6934C593.562 29.2148 593.973 28.8184 594.451 28.8184C594.937 28.8184 595.333 29.2148 595.326 29.6934C595.333 30.1787 594.937 30.5752 594.451 30.582ZM601.301 25.0039C601.137 24.3887 600.665 23.9854 599.797 23.9785C598.881 23.9854 598.231 24.4775 598.225 25.0996C598.231 25.5918 598.628 25.9268 599.496 26.1387L600.604 26.4121C601.93 26.7266 602.579 27.3896 602.586 28.4219C602.579 29.707 601.533 30.6572 599.674 30.6504C598.006 30.6572 597.015 29.9121 596.816 28.5586H598.047C598.184 29.2832 598.71 29.6318 599.646 29.625C600.706 29.6318 601.369 29.1875 601.369 28.4902C601.369 27.9639 600.993 27.6221 600.152 27.4238L599.031 27.1641C597.739 26.8633 597.049 26.1592 597.049 25.168C597.049 23.8965 598.163 22.9805 599.797 22.9805C601.335 22.9805 602.299 23.8008 602.449 25.0039H601.301ZM603.762 28.3945C603.762 26.6924 605.266 26.3027 606.551 26.207C607.029 26.1729 608.226 26.1045 608.561 26.0977V25.4961C608.561 24.5527 608 24.0059 606.879 24.0059C605.942 24.0059 605.375 24.4365 605.211 25.0039H603.98C604.131 23.8076 605.293 22.9805 606.934 22.9805C607.904 22.9805 609.729 23.2676 609.723 25.6055V30.5H608.561V29.4883H608.506C608.26 29.9873 607.583 30.6709 606.291 30.6777C604.883 30.6709 603.762 29.8438 603.762 28.3945ZM604.938 28.4492C604.944 29.2354 605.594 29.6318 606.496 29.625C607.822 29.6318 608.561 28.7432 608.561 27.8066V27.0615C608.212 27.082 607.043 27.1709 606.688 27.1914C605.621 27.2598 604.944 27.6357 604.938 28.4492ZM612.785 20.6016V30.5H611.609V20.6016H612.785ZM614.658 30.5V23.0762H615.793V24.2383H615.889C616.196 23.4453 616.914 22.9805 617.885 22.9805C618.855 22.9805 619.519 23.4453 619.867 24.2383H619.949C620.325 23.4727 621.111 22.9805 622.178 22.9805C623.497 22.9805 624.447 23.7871 624.447 25.5371V30.5H623.271V25.5508C623.265 24.457 622.581 24.0332 621.768 24.0332C620.735 24.0332 620.147 24.7305 620.141 25.6738V30.5H618.951V25.4277C618.958 24.5938 618.356 24.0332 617.502 24.0332C616.613 24.0332 615.834 24.7852 615.834 25.8652V30.5H614.658ZM629.369 30.6504C627.264 30.6572 625.979 29.0508 625.979 26.8223C625.979 24.5664 627.325 22.9805 629.342 22.9805C630.921 22.9805 632.11 23.917 632.295 25.3184H631.119C630.948 24.6416 630.36 24.0195 629.369 24.0195C628.043 24.0195 627.161 25.1133 627.154 26.7812C627.161 28.4971 628.022 29.5977 629.369 29.5977C630.244 29.5977 630.914 29.126 631.119 28.3125H632.295C632.11 29.6387 631.017 30.6572 629.369 30.6504ZM636.779 30.6504C634.756 30.6572 633.389 29.126 633.389 26.8223C633.389 24.5049 634.756 22.9805 636.779 22.9805C638.796 22.9805 640.149 24.5049 640.143 26.8223C640.149 29.126 638.796 30.6572 636.779 30.6504ZM634.564 26.8223C634.571 28.3057 635.269 29.6113 636.779 29.6113C638.276 29.6113 638.967 28.3057 638.967 26.8223C638.967 25.3457 638.276 24.0195 636.779 24.0195C635.269 24.0195 634.571 25.3457 634.564 26.8223ZM641.688 30.5V23.0762H642.822V24.2109H642.904C643.171 23.459 643.943 22.96 644.818 22.9531C644.996 22.96 645.297 22.9668 645.434 22.9805V24.1699C645.345 24.1494 645.03 24.0879 644.723 24.0879C643.656 24.0879 642.863 24.8262 642.863 25.8242V30.5H641.688ZM646.582 33.2891V23.0762H647.717V24.252H647.854C648.106 23.8555 648.558 22.9805 650 22.9805C651.866 22.9805 653.158 24.457 653.158 26.8086C653.158 29.167 651.866 30.6572 650.014 30.6504C648.599 30.6572 648.106 29.7754 647.854 29.3652H647.758V33.2891H646.582ZM647.73 26.7812C647.737 28.4492 648.482 29.5977 649.85 29.5977C651.258 29.5977 651.982 28.3604 651.982 26.7812C651.982 25.2295 651.278 24.0332 649.85 24.0332C648.462 24.0332 647.737 25.1338 647.73 26.7812ZM655.523 30.582C655.045 30.5752 654.635 30.1787 654.648 29.6934C654.635 29.2148 655.045 28.8184 655.523 28.8184C656.009 28.8184 656.405 29.2148 656.398 29.6934C656.405 30.1787 656.009 30.5752 655.523 30.582ZM661.279 30.6504C659.174 30.6572 657.889 29.0508 657.889 26.8223C657.889 24.5664 659.235 22.9805 661.252 22.9805C662.831 22.9805 664.021 23.917 664.205 25.3184H663.029C662.858 24.6416 662.271 24.0195 661.279 24.0195C659.953 24.0195 659.071 25.1133 659.064 26.7812C659.071 28.4971 659.933 29.5977 661.279 29.5977C662.154 29.5977 662.824 29.126 663.029 28.3125H664.205C664.021 29.6387 662.927 30.6572 661.279 30.6504ZM668.689 30.6504C666.666 30.6572 665.299 29.126 665.299 26.8223C665.299 24.5049 666.666 22.9805 668.689 22.9805C670.706 22.9805 672.06 24.5049 672.053 26.8223C672.06 29.126 670.706 30.6572 668.689 30.6504ZM666.475 26.8223C666.481 28.3057 667.179 29.6113 668.689 29.6113C670.187 29.6113 670.877 28.3057 670.877 26.8223C670.877 25.3457 670.187 24.0195 668.689 24.0195C667.179 24.0195 666.481 25.3457 666.475 26.8223ZM673.598 30.5V23.0762H674.732V24.2383H674.828C675.136 23.4453 675.854 22.9805 676.824 22.9805C677.795 22.9805 678.458 23.4453 678.807 24.2383H678.889C679.265 23.4727 680.051 22.9805 681.117 22.9805C682.437 22.9805 683.387 23.7871 683.387 25.5371V30.5H682.211V25.5508C682.204 24.457 681.521 24.0332 680.707 24.0332C679.675 24.0332 679.087 24.7305 679.08 25.6738V30.5H677.891V25.4277C677.897 24.5938 677.296 24.0332 676.441 24.0332C675.553 24.0332 674.773 24.7852 674.773 25.8652V30.5H673.598ZM688.801 20.1367L685.602 31.9902H684.535L687.721 20.1367H688.801ZM694.078 25.0039C693.914 24.3887 693.442 23.9854 692.574 23.9785C691.658 23.9854 691.009 24.4775 691.002 25.0996C691.009 25.5918 691.405 25.9268 692.273 26.1387L693.381 26.4121C694.707 26.7266 695.356 27.3896 695.363 28.4219C695.356 29.707 694.311 30.6572 692.451 30.6504C690.783 30.6572 689.792 29.9121 689.594 28.5586H690.824C690.961 29.2832 691.487 29.6318 692.424 29.625C693.483 29.6318 694.146 29.1875 694.146 28.4902C694.146 27.9639 693.771 27.6221 692.93 27.4238L691.809 27.1641C690.517 26.8633 689.826 26.1592 689.826 25.168C689.826 23.8965 690.94 22.9805 692.574 22.9805C694.112 22.9805 695.076 23.8008 695.227 25.0039H694.078ZM700.135 23.0762V24.0605H698.576V28.3672C698.569 29.3174 699.048 29.4746 699.547 29.4746C699.759 29.4746 700.073 29.4541 700.244 29.4473V30.541C700.06 30.5684 699.772 30.5957 699.424 30.5957C698.433 30.5957 697.394 29.9805 697.387 28.668V24.0605H696.266V23.0762H697.387V21.2988H698.576V23.0762H700.135ZM704.605 30.6504C702.5 30.6572 701.215 29.0508 701.215 26.8223C701.215 24.5664 702.562 22.9805 704.578 22.9805C706.157 22.9805 707.347 23.917 707.531 25.3184H706.355C706.185 24.6416 705.597 24.0195 704.605 24.0195C703.279 24.0195 702.397 25.1133 702.391 26.7812C702.397 28.4971 703.259 29.5977 704.605 29.5977C705.48 29.5977 706.15 29.126 706.355 28.3125H707.531C707.347 29.6387 706.253 30.6572 704.605 30.6504ZM712.221 23.0762V24.0605H710.662V28.3672C710.655 29.3174 711.134 29.4746 711.633 29.4746C711.845 29.4746 712.159 29.4541 712.33 29.4473V30.541C712.146 30.5684 711.858 30.5957 711.51 30.5957C710.519 30.5957 709.479 29.9805 709.473 28.668V24.0605H708.352V23.0762H709.473V21.2988H710.662V23.0762H712.221ZM716.773 30.6504C714.627 30.6572 713.301 29.126 713.301 26.8496C713.301 24.5664 714.647 22.9805 716.664 22.9805C718.223 22.9805 719.87 23.9375 719.863 26.6855V27.1777H714.477C714.538 28.75 715.454 29.6113 716.773 29.6113C717.662 29.6113 718.223 29.2217 718.496 28.7637H719.754C719.405 29.8916 718.305 30.6572 716.773 30.6504ZM714.483 26.1797H718.674C718.667 24.9424 717.888 24.0195 716.664 24.0195C715.379 24.0195 714.565 25.0312 714.483 26.1797ZM725.523 25.0039C725.359 24.3887 724.888 23.9854 724.02 23.9785C723.104 23.9854 722.454 24.4775 722.447 25.0996C722.454 25.5918 722.851 25.9268 723.719 26.1387L724.826 26.4121C726.152 26.7266 726.802 27.3896 726.809 28.4219C726.802 29.707 725.756 30.6572 723.896 30.6504C722.229 30.6572 721.237 29.9121 721.039 28.5586H722.27C722.406 29.2832 722.933 29.6318 723.869 29.625C724.929 29.6318 725.592 29.1875 725.592 28.4902C725.592 27.9639 725.216 27.6221 724.375 27.4238L723.254 27.1641C721.962 26.8633 721.271 26.1592 721.271 25.168C721.271 23.8965 722.386 22.9805 724.02 22.9805C725.558 22.9805 726.521 23.8008 726.672 25.0039H725.523ZM731.58 23.0762V24.0605H730.021V28.3672C730.015 29.3174 730.493 29.4746 730.992 29.4746C731.204 29.4746 731.519 29.4541 731.689 29.4473V30.541C731.505 30.5684 731.218 30.5957 730.869 30.5957C729.878 30.5957 728.839 29.9805 728.832 28.668V24.0605H727.711V23.0762H728.832V21.2988H730.021V23.0762H731.58Z" fill="#4C4C4C"/>
</g>
<path d="M886.283 25.6152C886.43 25.6152 886.541 25.5684 886.623 25.4805L889.037 23.0547C889.143 22.9551 889.184 22.8379 889.184 22.7031C889.184 22.5742 889.131 22.4453 889.037 22.3516L886.623 19.9023C886.541 19.8086 886.424 19.7617 886.283 19.7617C886.02 19.7617 885.82 19.9727 885.82 20.2422C885.82 20.3652 885.867 20.4824 885.949 20.5762L887.514 22.1113C887.18 22.0527 886.84 22.0176 886.5 22.0176C883.629 22.0176 881.32 24.3203 881.32 27.1914C881.32 30.0684 883.629 32.377 886.5 32.377C889.371 32.377 891.674 30.0684 891.674 27.1914C891.674 26.9102 891.475 26.7051 891.188 26.7051C890.912 26.7051 890.73 26.9102 890.73 27.1914C890.73 29.5469 888.85 31.4336 886.5 31.4336C884.15 31.4336 882.264 29.5469 882.264 27.1914C882.264 24.8418 884.15 22.9609 886.5 22.9609C886.945 22.9609 887.355 22.9961 887.707 23.0723L885.955 24.8125C885.867 24.9062 885.82 25.0234 885.82 25.1465C885.82 25.416 886.02 25.6152 886.283 25.6152Z" fill="#797979"/>
</g>
</g>
<defs>
<filter id="filter0_di_288_366" x="0" y="0" width="1280" height="53.5" filterUnits="userSpaceOnUse" color-interpolation-filters="sRGB">
<feFlood flood-opacity="0" result="BackgroundImageFix"/>
<feColorMatrix in="SourceAlpha" type="matrix" values="0 0 0 0 0 0 0 0 0 0 0 0 0 0 0 0 0 0 127 0" result="hardAlpha"/>
<feOffset dy="0.5"/>
<feColorMatrix type="matrix" values="0 0 0 0 0 0 0 0 0 0 0 0 0 0 0 0 0 0 0.15 0"/>
<feBlend mode="normal" in2="BackgroundImageFix" result="effect1_dropShadow_288_366"/>
<feBlend mode="normal" in="SourceGraphic" in2="effect1_dropShadow_288_366" result="shape"/>
<feColorMatrix in="SourceAlpha" type="matrix" values="0 0 0 0 0 0 0 0 0 0 0 0 0 0 0 0 0 0 127 0" result="hardAlpha"/>
<feOffset dy="-0.5"/>
<feComposite in2="hardAlpha" operator="arithmetic" k2="-1" k3="1"/>
<feColorMatrix type="matrix" values="0 0 0 0 0 0 0 0 0 0 0 0 0 0 0 0 0 0 0.05 0"/>
<feBlend mode="normal" in2="shape" result="effect2_innerShadow_288_366"/>
</filter>
<filter id="filter1_i_288_366" x="21" y="20" width="12" height="12" filterUnits="userSpaceOnUse" color-interpolation-filters="sRGB">
<feFlood flood-opacity="0" result="BackgroundImageFix"/>
<feBlend mode="normal" in="SourceGraphic" in2="BackgroundImageFix" result="shape"/>
<feColorMatrix in="SourceAlpha" type="matrix" values="0 0 0 0 0 0 0 0 0 0 0 0 0 0 0 0 0 0 127 0" result="hardAlpha"/>
<feOffset/>
<feGaussianBlur stdDeviation="3"/>
<feComposite in2="hardAlpha" operator="arithmetic" k2="-1" k3="1"/>
<feColorMatrix type="matrix" values="0 0 0 0 0.92549 0 0 0 0 0.427451 0 0 0 0 0.384314 0 0 0 1 0"/>
<feBlend mode="normal" in2="shape" result="effect1_innerShadow_288_366"/>
</filter>
<filter id="filter2_i_288_366" x="41" y="20" width="12" height="12" filterUnits="userSpaceOnUse" color-interpolation-filters="sRGB">
<feFlood flood-opacity="0" result="BackgroundImageFix"/>
<feBlend mode="normal" in="SourceGraphic" in2="BackgroundImageFix" result="shape"/>
<feColorMatrix in="SourceAlpha" type="matrix" values="0 0 0 0 0 0 0 0 0 0 0 0 0 0 0 0 0 0 127 0" result="hardAlpha"/>
<feOffset/>
<feGaussianBlur stdDeviation="3"/>
<feComposite in2="hardAlpha" operator="arithmetic" k2="-1" k3="1"/>
<feColorMatrix type="matrix" values="0 0 0 0 0.960784 0 0 0 0 0.768627 0 0 0 0 0.317647 0 0 0 1 0"/>
<feBlend mode="normal" in2="shape" result="effect1_innerShadow_288_366"/>
</filter>
<filter id="filter3_i_288_366" x="61" y="20" width="12" height="12" filterUnits="userSpaceOnUse" color-interpolation-filters="sRGB">
<feFlood flood-opacity="0" result="BackgroundImageFix"/>
<feBlend mode="normal" in="SourceGraphic" in2="BackgroundImageFix" result="shape"/>
<feColorMatrix in="SourceAlpha" type="matrix" values="0 0 0 0 0 0 0 0 0 0 0 0 0 0 0 0 0 0 127 0" result="hardAlpha"/>
<feOffset/>
<feGaussianBlur stdDeviation="3"/>
<feComposite in2="hardAlpha" operator="arithmetic" k2="-1" k3="1"/>
<feColorMatrix type="matrix" values="0 0 0 0 0.407843 0 0 0 0 0.8 0 0 0 0 0.345098 0 0 0 1 0"/>
<feBlend mode="normal" in2="shape" result="effect1_innerShadow_288_366"/>
</filter>
<clipPath id="clip0_288_366">
<rect width="156" height="28" fill="white" transform="translate(1112 12)"/>
</clipPath>
<clipPath id="clip1_288_366">
<rect width="66" height="28" fill="white" transform="translate(134 12)"/>
</clipPath>
<clipPath id="clip2_288_366">
<rect width="600" height="28" fill="white" transform="translate(340 12)"/>
</clipPath>
<clipPath id="clip3_288_366">
<rect x="547.086" y="14.5" width="185.828" height="23" fill="white"/>
</clipPath>
</defs>
</svg>
