<svg width="1920" height="517" viewBox="0 0 1920 517" fill="none" xmlns="http://www.w3.org/2000/svg">
<g clip-path="url(#clip0_263_810)">
<rect x="-82.5" y="80.3301" width="173" height="74" rx="37" fill="#F5F5F7"/>
<path d="M-47.3672 131.33L-46.2148 124.26H-51.7812L-52.9531 131.33H-57.3281L-56.1562 124.26H-60.0625L-59.3203 119.924H-55.4531L-54.5547 114.455H-58.4219L-57.7188 110.08H-53.832L-52.6797 103.049H-48.3047L-49.457 110.08H-43.9102L-42.7578 103.049H-38.3828L-39.5352 110.08H-35.6484L-36.3906 114.455H-40.2578L-41.1562 119.924H-37.25L-37.9922 124.26H-41.8594L-43.0312 131.33H-47.3672ZM-51.0781 119.924H-45.5117L-44.6133 114.455H-50.1797L-51.0781 119.924ZM-25.2578 99.9238V102.385H-11V99.9238H-6.03906V111.838H-30.1797V99.9238H-25.2578ZM-34.3203 117.697V113.674H-1.89844V117.697H-15.6484V119.924H-5.84375V128.908H-25.6484V130.939H-4.90625V134.689H-30.5312V125.471H-10.7656V123.557H-30.5703V119.924H-20.6484V117.697H-34.3203ZM-25.2578 108.127H-11V105.979H-25.2578V108.127ZM28.9219 100.744V103.166C28.9414 105.354 28.9414 108.205 28.2773 111.643H32.7891V115.51H18.9219V118.869H28.7656V128.4H8.92188V130.822H29.7422V134.65H3.96094V125.002H23.8438V122.736H3.92188V118.869H13.9609V115.51H0.25V111.643H23.2578C23.8047 108.811 23.9219 106.604 23.9414 104.65H4.23438V100.744H28.9219ZM46.3438 101.76C51.9883 101.74 56.168 105.373 56.1875 110.471C56.168 115.588 51.9883 119.201 46.3438 119.221C40.7383 119.201 36.4414 115.588 36.4609 110.471C36.4414 105.373 40.7383 101.74 46.3438 101.76ZM34.9766 123.674C41.3242 123.693 50.1133 123.615 57.7109 122.541L58.1016 126.135C50.2109 127.678 41.7734 127.736 35.5625 127.736L34.9766 123.674ZM41.4219 110.471C41.4023 113.283 43.5312 114.904 46.3438 114.885C49.1758 114.904 51.3242 113.283 51.3438 110.471C51.3242 107.697 49.1758 106.057 46.3438 106.057C43.5312 106.057 41.4023 107.697 41.4219 110.471ZM59.7422 135.002V99.377H64.7031V135.002H59.7422Z" fill="#6E6E73"/>
<path d="M145.633 131.33L146.785 124.26H141.219L140.047 131.33H135.672L136.844 124.26H132.938L133.68 119.924H137.547L138.445 114.455H134.578L135.281 110.08H139.168L140.32 103.049H144.695L143.543 110.08H149.09L150.242 103.049H154.617L153.465 110.08H157.352L156.609 114.455H152.742L151.844 119.924H155.75L155.008 124.26H151.141L149.969 131.33H145.633ZM141.922 119.924H147.488L148.387 114.455H142.82L141.922 119.924ZM177.547 102.15C177.527 106.35 181.824 110.979 189.969 111.994L188.016 116.018C181.805 115.119 177.254 112.248 174.93 108.4C172.586 112.229 168.055 115.119 161.922 116.018L159.93 111.994C168.016 110.979 172.293 106.35 172.312 102.15V100.432H177.547V102.15ZM158.68 122.775V118.713H191.102V122.775H177.273V134.924H172.352V122.775H158.68ZM210.32 101.799V113.205H199.578V117.268C204.461 117.229 207.82 117.014 211.609 116.369L212.156 120.393C207.586 121.174 203.641 121.271 197.312 121.291H194.578V109.494H205.32V105.783H194.539V101.799H210.32ZM199.383 134.26V123.635H204.344V130.197H224.109V134.26H199.383ZM212.391 116.799V112.775H218.25V108.752H212.391V104.807H218.25V99.416H223.211V125.666H218.25V116.799H212.391ZM240.945 109.064C240.926 114.475 243.816 120.725 249.656 123.439L246.883 127.346C242.918 125.529 240.105 121.896 238.504 117.639C236.922 122.326 233.992 126.311 229.891 128.244L227 124.299C232.918 121.545 235.906 114.943 235.945 109.064V106.877H228.406V102.814H248.094V106.877H240.945V109.064ZM250.867 134.924V99.377H255.867V112.932H261.102V117.111H255.867V134.924H250.867Z" fill="#D2D2D7"/>
<rect x="303.5" y="80.3301" width="217" height="74" rx="37" fill="#F5F5F7"/>
<path d="M338.738 131.33L339.891 124.26H334.324L333.152 131.33H328.777L329.949 124.26H326.043L326.785 119.924H330.652L331.551 114.455H327.684L328.387 110.08H332.273L333.426 103.049H337.801L336.648 110.08H342.195L343.348 103.049H347.723L346.57 110.08H350.457L349.715 114.455H345.848L344.949 119.924H348.855L348.113 124.26H344.246L343.074 131.33H338.738ZM335.027 119.924H340.594L341.492 114.455H335.926L335.027 119.924ZM381.746 99.377V118.596H376.785V111.564H370.379V107.58H376.785V99.377H381.746ZM352.137 115.588C360.32 113.654 364.266 109.963 364.949 105.354H354.012V101.33H370.34C370.34 110.822 364.773 116.818 353.973 119.533L352.137 115.588ZM357.957 134.533V120.119H362.957V123.557H376.785V120.119H381.746V134.533H357.957ZM362.957 130.588H376.785V127.424H362.957V130.588ZM416.121 99.377V135.002H411.082V99.377H416.121ZM387.41 114.533C387.391 106.779 391.355 101.877 396.824 101.877C402.176 101.877 406.16 106.779 406.16 114.533C406.16 122.346 402.176 127.229 396.824 127.229C391.355 127.229 387.391 122.346 387.41 114.533ZM392.215 114.533C392.195 119.826 394.051 122.717 396.824 122.697C399.52 122.717 401.336 119.826 401.355 114.533C401.336 109.26 399.52 106.369 396.824 106.369C394.051 106.369 392.195 109.26 392.215 114.533ZM438.699 120.158V123.713H442.527V120.158H447.137V130.959C451.082 129.162 452.762 125.842 452.762 122.619V119.885H457.762V122.619C457.742 126.252 459.48 129.689 463.934 131.135L461.355 134.846C458.289 133.791 456.316 131.76 455.184 129.201C454.012 131.682 452.059 133.732 449.168 134.846L447.137 131.779V134.533H434.09V120.158H438.699ZM430.613 109.064C430.574 104.182 434.598 100.725 440.066 100.705C444.578 100.725 448.191 103.225 449.168 106.994H455.145V99.377H460.105V118.205H455.145V111.096H449.188C448.23 114.943 444.598 117.502 440.066 117.502C434.598 117.502 430.574 114.025 430.613 109.064ZM435.34 109.064C435.32 111.76 437.273 113.42 440.066 113.439C442.762 113.42 444.695 111.76 444.715 109.064C444.695 106.447 442.762 104.826 440.066 104.807C437.273 104.826 435.32 106.447 435.34 109.064ZM438.699 130.744H442.527V127.385H438.699V130.744ZM493.582 109.064V112.971H468.738V100.627H473.699V109.064H493.582ZM464.676 120.705V116.799H497.215V120.705H464.676ZM468.426 134.143V123.596H473.426V130.158H493.816V134.143H468.426Z" fill="#6E6E73"/>
<path d="M575.633 131.33L576.785 124.26H571.219L570.047 131.33H565.672L566.844 124.26H562.938L563.68 119.924H567.547L568.445 114.455H564.578L565.281 110.08H569.168L570.32 103.049H574.695L573.543 110.08H579.09L580.242 103.049H584.617L583.465 110.08H587.352L586.609 114.455H582.742L581.844 119.924H585.75L585.008 124.26H581.141L579.969 131.33H575.633ZM571.922 119.924H577.488L578.387 114.455H572.82L571.922 119.924ZM617 100.822V113.205H607.352V116.213H621.102V120.119H588.68V116.213H602.352V113.205H592.703V100.822H617ZM592.391 128.518C592.391 124.338 597.059 122.053 604.852 122.072C612.527 122.053 617.195 124.338 617.234 128.518C617.195 132.639 612.527 134.963 604.852 134.963C597.059 134.963 592.391 132.639 592.391 128.518ZM597.469 128.518C597.449 130.334 599.93 131.174 604.852 131.174C609.676 131.174 612.215 130.334 612.234 128.518C612.215 126.682 609.676 125.842 604.852 125.822C599.93 125.842 597.449 126.682 597.469 128.518ZM597.586 109.299H612.117V104.689H597.586V109.299ZM636.219 104.963C636.199 109.279 638.719 113.42 644.344 115.158L641.688 119.025C637.918 117.775 635.281 115.354 633.758 112.248C632.215 115.822 629.461 118.635 625.398 120.002L622.703 116.096C628.641 114.123 631.18 109.396 631.219 104.494V101.252H636.219V104.963ZM627.625 128.049C627.605 123.732 632.312 121.174 639.812 121.174C647.176 121.174 651.785 123.732 651.805 128.049C651.785 132.404 647.176 134.943 639.812 134.924C632.312 134.943 627.605 132.404 627.625 128.049ZM632.625 128.049C632.586 130.061 635.145 131.018 639.812 131.018C644.422 131.018 646.883 130.061 646.883 128.049C646.883 126.115 644.422 125.08 639.812 125.08C635.145 125.08 632.586 126.115 632.625 128.049ZM646.453 120.471V99.377H651.453V107.697H656.258V111.838H651.453V120.471H646.453ZM685.867 99.377V113.01H690.906V117.111H685.867V134.846H680.867V99.377H685.867ZM657.43 124.885C665.848 120.666 670.379 115.002 671.316 107.072H659.461V103.01H676.375C676.336 113.635 672.195 122.834 660.242 128.713L657.43 124.885Z" fill="#D2D2D7"/>
<rect x="733.5" y="80.3301" width="242" height="74" rx="37" fill="#F5F5F7"/>
<path d="M768.562 131.33L769.715 124.26H764.148L762.977 131.33H758.602L759.773 124.26H755.867L756.609 119.924H760.477L761.375 114.455H757.508L758.211 110.08H762.098L763.25 103.049H767.625L766.473 110.08H772.02L773.172 103.049H777.547L776.395 110.08H780.281L779.539 114.455H775.672L774.773 119.924H778.68L777.938 124.26H774.07L772.898 131.33H768.562ZM764.852 119.924H770.418L771.316 114.455H765.75L764.852 119.924ZM814.109 119.143V123.166H806.492V134.924H801.414V123.166H794.148V134.924H789.031V123.166H781.57V119.143H814.109ZM784.852 108.596C784.832 103.693 790.105 100.568 797.742 100.549C805.379 100.568 810.711 103.693 810.711 108.596C810.711 113.381 805.379 116.428 797.742 116.408C790.105 116.428 784.832 113.381 784.852 108.596ZM789.969 108.596C789.949 111.096 792.977 112.482 797.742 112.502C802.547 112.482 805.555 111.096 805.555 108.596C805.555 105.979 802.547 104.553 797.742 104.533C792.977 104.553 789.949 105.979 789.969 108.596ZM848.68 119.143V123.166H841.062V134.924H835.984V123.166H828.719V134.924H823.602V123.166H816.141V119.143H848.68ZM819.422 108.596C819.402 103.693 824.676 100.568 832.312 100.549C839.949 100.568 845.281 103.693 845.281 108.596C845.281 113.381 839.949 116.428 832.312 116.408C824.676 116.428 819.402 113.381 819.422 108.596ZM824.539 108.596C824.52 111.096 827.547 112.482 832.312 112.502C837.117 112.482 840.125 111.096 840.125 108.596C840.125 105.979 837.117 104.553 832.312 104.533C827.547 104.553 824.52 105.979 824.539 108.596ZM863.875 109.064C863.855 114.475 866.746 120.725 872.586 123.439L869.812 127.346C865.848 125.529 863.035 121.896 861.434 117.639C859.852 122.326 856.922 126.311 852.82 128.244L849.93 124.299C855.848 121.545 858.836 114.943 858.875 109.064V106.877H851.336V102.814H871.023V106.877H863.875V109.064ZM873.797 134.924V99.377H878.797V112.932H884.031V117.111H878.797V134.924H873.797ZM905.828 101.369V105.314H898.758C898.777 109.494 901.316 113.811 906.922 115.666L904.461 119.494C900.535 118.264 897.82 115.686 896.277 112.502C894.695 116.037 891.863 118.889 887.664 120.236L885.125 116.291C890.984 114.436 893.641 109.729 893.68 105.314H886.531V101.369H905.828ZM890.867 126.096V122.111H915.281V134.924H910.32V126.096H890.867ZM904.812 111.994V107.932H910.32V99.377H915.281V120.549H910.32V111.994H904.812ZM948.094 99.416V110.314H952.898V114.377H948.094V125.939H943.094V99.416H948.094ZM919.891 107.072V103.127H927.977V99.3379H932.938V103.127H940.984V107.072H919.891ZM921.609 115.197C921.609 111.076 925.262 108.322 930.438 108.322C935.594 108.322 939.188 111.076 939.188 115.197C939.188 119.299 935.594 121.994 930.438 121.994C925.262 121.994 921.609 119.299 921.609 115.197ZM925.047 134.299V123.908H930.008V130.314H949.383V134.299H925.047ZM926.492 115.197C926.473 117.15 928.055 118.205 930.438 118.205C932.84 118.205 934.461 117.15 934.461 115.197C934.461 113.225 932.84 112.131 930.438 112.111C928.055 112.131 926.473 113.225 926.492 115.197Z" fill="#6E6E73"/>
<path d="M1030.63 131.33L1031.79 124.26H1026.22L1025.05 131.33H1020.67L1021.84 124.26H1017.94L1018.68 119.924H1022.55L1023.45 114.455H1019.58L1020.28 110.08H1024.17L1025.32 103.049H1029.7L1028.54 110.08H1034.09L1035.24 103.049H1039.62L1038.46 110.08H1042.35L1041.61 114.455H1037.74L1036.84 119.924H1040.75L1040.01 124.26H1036.14L1034.97 131.33H1030.63ZM1026.92 119.924H1032.49L1033.39 114.455H1027.82L1026.92 119.924ZM1063.52 102.463V106.369H1043.76V102.463H1051.41V99.0645H1056.38V102.463H1063.52ZM1045.52 113.869C1045.48 110.041 1048.93 107.385 1053.84 107.385C1058.72 107.385 1062.23 110.041 1062.27 113.869C1062.23 117.717 1058.72 120.295 1053.84 120.314C1048.93 120.295 1045.48 117.717 1045.52 113.869ZM1049.66 134.533V121.877H1054.66V124.494H1068.72V121.877H1073.64V134.533H1049.66ZM1050.16 113.869C1050.14 115.646 1051.59 116.701 1053.84 116.682C1056.06 116.701 1057.62 115.646 1057.62 113.869C1057.62 112.092 1056.06 111.115 1053.84 111.096C1051.59 111.115 1050.14 112.092 1050.16 113.869ZM1054.66 130.705H1068.72V128.205H1054.66V130.705ZM1063.84 117.971V113.986H1068.68V110.979H1063.91V106.955H1068.68V99.377H1073.64V120.549H1068.68V117.971H1063.84ZM1095.32 101.447V112.541H1084.58V116.33C1089.85 116.33 1093.02 116.154 1096.61 115.471L1097.08 119.455C1092.92 120.197 1089.19 120.295 1082.31 120.314H1079.66V108.83H1090.32V105.354H1079.58V101.447H1095.32ZM1083.72 126.877V122.893H1108.21V134.924H1103.25V126.877H1083.72ZM1097.35 115.822V111.877H1103.25V108.283H1097.35V104.338H1103.25V99.416H1108.21V121.291H1103.25V115.822H1097.35ZM1125.95 109.064C1125.93 114.475 1128.82 120.725 1134.66 123.439L1131.88 127.346C1127.92 125.529 1125.11 121.896 1123.5 117.639C1121.92 122.326 1118.99 126.311 1114.89 128.244L1112 124.299C1117.92 121.545 1120.91 114.943 1120.95 109.064V106.877H1113.41V102.814H1133.09V106.877H1125.95V109.064ZM1135.87 134.924V99.377H1140.87V112.932H1146.1V117.111H1140.87V134.924H1135.87Z" fill="#D2D2D7"/>
<path d="M1223.56 131.33L1224.71 124.26H1219.15L1217.98 131.33H1213.6L1214.77 124.26H1210.87L1211.61 119.924H1215.48L1216.38 114.455H1212.51L1213.21 110.08H1217.1L1218.25 103.049H1222.62L1221.47 110.08H1227.02L1228.17 103.049H1232.55L1231.39 110.08H1235.28L1234.54 114.455H1230.67L1229.77 119.924H1233.68L1232.94 124.26H1229.07L1227.9 131.33H1223.56ZM1219.85 119.924H1225.42L1226.32 114.455H1220.75L1219.85 119.924ZM1256.45 101.721V105.705H1253.52V115.178C1254.71 115.1 1255.89 114.982 1257 114.846L1257.2 118.518C1250.52 119.631 1242.76 119.768 1237.12 119.768L1236.61 115.744C1237.78 115.744 1239.07 115.725 1240.4 115.705V105.705H1237.51V101.721H1256.45ZM1242.2 128.322C1242.2 124.064 1246.8 121.662 1254.42 121.643C1262.06 121.662 1266.67 124.064 1266.69 128.322C1266.67 132.463 1262.06 134.943 1254.42 134.924C1246.8 134.943 1242.2 132.463 1242.2 128.322ZM1245.2 115.607C1246.38 115.588 1247.57 115.529 1248.76 115.49V105.705H1245.2V115.607ZM1247.16 128.322C1247.16 130.197 1249.68 131.135 1254.42 131.135C1259.17 131.135 1261.71 130.197 1261.73 128.322C1261.71 126.389 1259.17 125.451 1254.42 125.471C1249.68 125.451 1247.16 126.389 1247.16 128.322ZM1257.23 115.783V111.799H1261.61V109.064H1257.23V105.158H1261.61V99.377H1266.57V121.096H1261.61V115.783H1257.23ZM1299.62 99.377V113.83H1304.27V117.971H1299.62V134.924H1294.58V99.377H1299.62ZM1270.75 124.885C1273.35 124.885 1276.38 124.885 1279.54 124.807V121.76C1275.77 121.018 1273.31 118.615 1273.33 115.314C1273.31 111.35 1276.9 108.635 1282.08 108.635C1287.16 108.635 1290.79 111.35 1290.83 115.314C1290.79 118.615 1288.29 121.037 1284.54 121.76V124.631C1287.35 124.475 1290.18 124.24 1292.82 123.869L1293.13 127.502C1285.57 128.908 1277.41 128.967 1271.41 128.947L1270.75 124.885ZM1271.45 107.229V103.322H1279.54V99.5723H1284.54V103.322H1292.55V107.229H1271.45ZM1278.05 115.314C1278.04 117.189 1279.64 118.205 1282.08 118.205C1284.44 118.205 1286.02 117.189 1286.02 115.314C1286.02 113.479 1284.44 112.443 1282.08 112.424C1279.64 112.443 1278.04 113.479 1278.05 115.314ZM1338.17 118.986V122.971H1324.34V134.924H1319.42V122.971H1305.75V118.986H1338.17ZM1307.35 113.01C1314.54 112.131 1318.52 108.654 1319.05 105.158H1308.68V101.252H1335.28V105.158H1324.91C1325.42 108.654 1329.34 112.131 1336.65 113.01L1334.85 116.916C1328.6 116.076 1324.13 113.42 1321.98 109.768C1319.81 113.42 1315.38 116.076 1309.19 116.916L1307.35 113.01ZM1351.84 101.76C1357.49 101.74 1361.67 105.373 1361.69 110.471C1361.67 115.588 1357.49 119.201 1351.84 119.221C1346.24 119.201 1341.94 115.588 1341.96 110.471C1341.94 105.373 1346.24 101.74 1351.84 101.76ZM1340.48 123.674C1346.82 123.693 1355.61 123.615 1363.21 122.541L1363.6 126.135C1355.71 127.678 1347.27 127.736 1341.06 127.736L1340.48 123.674ZM1346.92 110.471C1346.9 113.283 1349.03 114.904 1351.84 114.885C1354.68 114.904 1356.82 113.283 1356.84 110.471C1356.82 107.697 1354.68 106.057 1351.84 106.057C1349.03 106.057 1346.9 107.697 1346.92 110.471ZM1365.24 135.002V99.377H1370.2V135.002H1365.24ZM1388.02 109.064C1388 114.475 1390.89 120.725 1396.73 123.439L1393.95 127.346C1389.99 125.529 1387.18 121.896 1385.57 117.639C1383.99 122.326 1381.06 126.311 1376.96 128.244L1374.07 124.299C1379.99 121.545 1382.98 114.943 1383.02 109.064V106.877H1375.48V102.814H1395.16V106.877H1388.02V109.064ZM1397.94 134.924V99.377H1402.94V112.932H1408.17V117.111H1402.94V134.924H1397.94Z" fill="#D2D2D7"/>
<rect x="1450.5" y="80.3301" width="208" height="74" rx="37" fill="#F5F5F7"/>
<path d="M1485.85 131.33L1487 124.26H1481.43L1480.26 131.33H1475.89L1477.06 124.26H1473.15L1473.89 119.924H1477.76L1478.66 114.455H1474.79L1475.5 110.08H1479.38L1480.54 103.049H1484.91L1483.76 110.08H1489.3L1490.46 103.049H1494.83L1493.68 110.08H1497.57L1496.82 114.455H1492.96L1492.06 119.924H1495.96L1495.22 124.26H1491.36L1490.18 131.33H1485.85ZM1482.14 119.924H1487.7L1488.6 114.455H1483.04L1482.14 119.924ZM1531.32 116.604V120.549H1498.89V116.604H1512.61V113.439H1502.84V100.783H1527.49V104.729H1507.8V109.416H1527.84V113.439H1517.61V116.604H1531.32ZM1502.49 126.955V123.01H1527.45V135.041H1522.57V126.955H1502.49ZM1546.59 109.064C1546.57 114.475 1549.46 120.725 1555.3 123.439L1552.53 127.346C1548.56 125.529 1545.75 121.896 1544.15 117.639C1542.57 122.326 1539.64 126.311 1535.54 128.244L1532.64 124.299C1538.56 121.545 1541.55 114.943 1541.59 109.064V106.877H1534.05V102.814H1553.74V106.877H1546.59V109.064ZM1556.51 134.924V99.377H1561.51V112.932H1566.75V117.111H1561.51V134.924H1556.51ZM1588.54 101.369V105.314H1581.47C1581.49 109.494 1584.03 113.811 1589.64 115.666L1587.18 119.494C1583.25 118.264 1580.54 115.686 1578.99 112.502C1577.41 116.037 1574.58 118.889 1570.38 120.236L1567.84 116.291C1573.7 114.436 1576.36 109.729 1576.39 105.314H1569.25V101.369H1588.54ZM1573.58 126.096V122.111H1598V134.924H1593.04V126.096H1573.58ZM1587.53 111.994V107.932H1593.04V99.377H1598V120.549H1593.04V111.994H1587.53ZM1632.37 99.416V124.963H1627.37V99.416H1632.37ZM1603.15 110.627C1603.15 105.412 1607.41 101.662 1612.88 101.682C1618.33 101.662 1622.59 105.412 1622.61 110.627C1622.59 115.92 1618.33 119.65 1612.88 119.65C1607.41 119.65 1603.15 115.92 1603.15 110.627ZM1608.04 110.627C1608 113.596 1610.09 115.314 1612.88 115.314C1615.57 115.314 1617.66 113.596 1617.68 110.627C1617.66 107.736 1615.57 105.998 1612.88 106.018C1610.09 105.998 1608 107.736 1608.04 110.627ZM1608.54 134.299V122.385H1613.58V130.314H1633.31V134.299H1608.54Z" fill="#6E6E73"/>
<path d="M1713.63 131.33L1714.79 124.26H1709.22L1708.05 131.33H1703.67L1704.84 124.26H1700.94L1701.68 119.924H1705.55L1706.45 114.455H1702.58L1703.28 110.08H1707.17L1708.32 103.049H1712.7L1711.54 110.08H1717.09L1718.24 103.049H1722.62L1721.46 110.08H1725.35L1724.61 114.455H1720.74L1719.84 119.924H1723.75L1723.01 124.26H1719.14L1717.97 131.33H1713.63ZM1709.92 119.924H1715.49L1716.39 114.455H1710.82L1709.92 119.924ZM1755.12 99.377V111.057H1759.65V115.158H1755.12V127.111H1750.12V99.377H1755.12ZM1726.29 119.807C1728.85 119.807 1731.82 119.787 1734.92 119.689V117.639C1731.05 117.092 1728.65 115.178 1728.67 112.385C1728.65 108.869 1732.11 106.818 1737.38 106.838C1742.62 106.818 1746.07 108.869 1746.09 112.385C1746.07 115.158 1743.69 117.072 1739.88 117.639V119.455C1742.79 119.279 1745.72 119.006 1748.48 118.596L1748.83 122.033C1741.35 123.479 1732.93 123.576 1726.8 123.635L1726.29 119.807ZM1727.23 105.822V102.268H1734.92V99.2598H1739.88V102.268H1747.58V105.822H1727.23ZM1731.29 134.299V125.275H1736.29V130.314H1756.33V134.299H1731.29ZM1733.44 112.385C1733.42 113.713 1734.84 114.475 1737.38 114.455C1739.88 114.475 1741.31 113.713 1741.33 112.385C1741.31 110.881 1739.88 110.158 1737.38 110.158C1734.84 110.158 1733.42 110.881 1733.44 112.385ZM1774.22 104.963C1774.2 109.279 1776.72 113.42 1782.34 115.158L1779.69 119.025C1775.92 117.775 1773.28 115.354 1771.76 112.248C1770.21 115.822 1767.46 118.635 1763.4 120.002L1760.7 116.096C1766.64 114.123 1769.18 109.396 1769.22 104.494V101.252H1774.22V104.963ZM1765.62 128.049C1765.61 123.732 1770.31 121.174 1777.81 121.174C1785.18 121.174 1789.79 123.732 1789.8 128.049C1789.79 132.404 1785.18 134.943 1777.81 134.924C1770.31 134.943 1765.61 132.404 1765.62 128.049ZM1770.62 128.049C1770.59 130.061 1773.14 131.018 1777.81 131.018C1782.42 131.018 1784.88 130.061 1784.88 128.049C1784.88 126.115 1782.42 125.08 1777.81 125.08C1773.14 125.08 1770.59 126.115 1770.62 128.049ZM1784.45 120.471V99.377H1789.45V107.697H1794.26V111.838H1789.45V120.471H1784.45ZM1823.87 99.377V113.01H1828.91V117.111H1823.87V134.846H1818.87V99.377H1823.87ZM1795.43 124.885C1803.85 120.666 1808.38 115.002 1809.32 107.072H1797.46V103.01H1814.38C1814.34 113.635 1810.2 122.834 1798.24 128.713L1795.43 124.885Z" fill="#D2D2D7"/>
<rect x="1871.5" y="80.3301" width="173" height="74" rx="37" fill="#F5F5F7"/>
<path d="M1906.63 131.33L1907.79 124.26H1902.22L1901.05 131.33H1896.67L1897.84 124.26H1893.94L1894.68 119.924H1898.55L1899.45 114.455H1895.58L1896.28 110.08H1900.17L1901.32 103.049H1905.7L1904.54 110.08H1910.09L1911.24 103.049H1915.62L1914.46 110.08H1918.35L1917.61 114.455H1913.74L1912.84 119.924H1916.75L1916.01 124.26H1912.14L1910.97 131.33H1906.63ZM1902.92 119.924H1908.49L1909.39 114.455H1903.82L1902.92 119.924ZM1929.6 101.291C1932.43 101.271 1934.91 102.326 1936.61 104.064H1944.68V99.377H1949.64V120.197H1944.68V115.939H1936.57C1934.88 117.658 1932.41 118.693 1929.6 118.674C1924.21 118.693 1920.11 115.021 1920.15 110.002C1920.11 104.924 1924.21 101.271 1929.6 101.291ZM1924.88 110.002C1924.86 112.736 1926.83 114.475 1929.6 114.455C1932.28 114.475 1934.23 112.736 1934.25 110.002C1934.23 107.17 1932.28 105.529 1929.6 105.549C1926.83 105.529 1924.86 107.17 1924.88 110.002ZM1925.27 127.932C1925.27 123.518 1929.97 120.92 1937.49 120.939C1945.01 120.92 1949.74 123.518 1949.76 127.932C1949.74 132.346 1945.01 134.943 1937.49 134.924C1929.97 134.943 1925.27 132.346 1925.27 127.932ZM1930.15 127.932C1930.15 130.002 1932.79 131.057 1937.49 131.057C1942.3 131.057 1944.86 130.002 1944.88 127.932C1944.86 125.803 1942.3 124.748 1937.49 124.729C1932.79 124.748 1930.15 125.803 1930.15 127.932ZM1938.74 108.01C1938.9 108.635 1938.98 109.318 1938.98 110.002C1938.98 110.686 1938.9 111.33 1938.76 111.955H1944.68V108.01H1938.74ZM1984.05 99.377V135.002H1979.09V99.377H1984.05ZM1956.12 106.369V102.346H1973.04V116.057H1961.32V122.58C1966.75 122.541 1971.34 122.268 1976.55 121.408L1976.98 125.432C1971.14 126.467 1965.85 126.682 1959.37 126.682H1956.16V112.111H1967.96V106.369H1956.12ZM2017.02 99.416V110.314H2021.83V114.377H2017.02V125.939H2012.02V99.416H2017.02ZM1988.82 107.072V103.127H1996.91V99.3379H2001.87V103.127H2009.91V107.072H1988.82ZM1990.54 115.197C1990.54 111.076 1994.19 108.322 1999.37 108.322C2004.52 108.322 2008.12 111.076 2008.12 115.197C2008.12 119.299 2004.52 121.994 1999.37 121.994C1994.19 121.994 1990.54 119.299 1990.54 115.197ZM1993.98 134.299V123.908H1998.94V130.314H2018.31V134.299H1993.98ZM1995.42 115.197C1995.4 117.15 1996.98 118.205 1999.37 118.205C2001.77 118.205 2003.39 117.15 2003.39 115.197C2003.39 113.225 2001.77 112.131 1999.37 112.111C1996.98 112.131 1995.4 113.225 1995.42 115.197Z" fill="#6E6E73"/>
<rect x="-159.5" y="174.33" width="208" height="74" rx="37" fill="#F5F5F7"/>
<path d="M-124.152 225.33L-123 218.26H-128.566L-129.738 225.33H-134.113L-132.941 218.26H-136.848L-136.105 213.924H-132.238L-131.34 208.455H-135.207L-134.504 204.08H-130.617L-129.465 197.049H-125.09L-126.242 204.08H-120.695L-119.543 197.049H-115.168L-116.32 204.08H-112.434L-113.176 208.455H-117.043L-117.941 213.924H-114.035L-114.777 218.26H-118.645L-119.816 225.33H-124.152ZM-127.863 213.924H-122.297L-121.398 208.455H-126.965L-127.863 213.924ZM-81.1445 193.377V214.471H-86.1055V206.072H-91.6523V202.049H-86.1055V193.377H-81.1445ZM-111.34 210.564C-105.52 208.611 -102.863 203.963 -102.746 199.51H-109.895V195.525H-90.5977V199.51H-97.668C-97.5703 203.65 -95.0312 207.83 -89.5039 209.666L-91.9648 213.572C-95.8711 212.303 -98.5859 209.725 -100.129 206.541C-101.691 210.154 -104.543 213.064 -108.762 214.51L-111.34 210.564ZM-105.52 222.127C-105.52 217.811 -100.871 215.271 -93.293 215.252C-85.6953 215.271 -81.0469 217.811 -81.0273 222.127C-81.0469 226.443 -85.6953 228.963 -93.293 228.963C-100.871 228.963 -105.52 226.443 -105.52 222.127ZM-100.559 222.127C-100.559 224.158 -98 225.174 -93.293 225.174C-88.5664 225.174 -86.0078 224.158 -85.9883 222.127C-86.0078 220.076 -88.5664 219.061 -93.293 219.08C-98 219.061 -100.559 220.076 -100.559 222.127ZM-66.6133 194.393C-63.7422 194.373 -61.2422 195.35 -59.543 197.01H-51.5352V193.377H-46.5742V211.189H-51.5352V208.104H-59.5039C-61.2031 209.783 -63.7227 210.779 -66.6133 210.799C-72.043 210.779 -76.1055 207.42 -76.0664 202.557C-76.1055 197.732 -72.043 194.373 -66.6133 194.393ZM-71.3398 202.557C-71.3594 205.213 -69.3867 206.775 -66.6133 206.775C-63.9375 206.775 -61.9844 205.213 -61.9648 202.557C-61.9844 199.959 -63.9375 198.396 -66.6133 198.416C-69.3867 198.396 -71.3594 199.959 -71.3398 202.557ZM-70.2461 216.541V212.713H-46.5742V222.322H-65.207V224.627H-45.5195V228.533H-70.207V218.65H-51.5352V216.541H-70.2461ZM-57.4141 200.877C-57.2969 201.404 -57.2383 201.971 -57.2383 202.557C-57.2383 203.143 -57.2969 203.709 -57.4141 204.236H-51.5352V200.877H-57.4141ZM-21.457 195.369V199.314H-28.5273C-28.5078 203.494 -25.9688 207.811 -20.3633 209.666L-22.8242 213.494C-26.75 212.264 -29.4648 209.686 -31.0078 206.502C-32.5898 210.037 -35.4219 212.889 -39.6211 214.236L-42.1602 210.291C-36.3008 208.436 -33.6445 203.729 -33.6055 199.314H-40.7539V195.369H-21.457ZM-36.418 220.096V216.111H-12.0039V228.924H-16.9648V220.096H-36.418ZM-22.4727 205.994V201.932H-16.9648V193.377H-12.0039V214.549H-16.9648V205.994H-22.4727ZM22.3711 193.416V218.963H17.3711V193.416H22.3711ZM-6.84766 204.627C-6.84766 199.412 -2.58984 195.662 2.87891 195.682C8.32812 195.662 12.5859 199.412 12.6055 204.627C12.5859 209.92 8.32812 213.65 2.87891 213.65C-2.58984 213.65 -6.84766 209.92 -6.84766 204.627ZM-1.96484 204.627C-2.00391 207.596 0.0859375 209.314 2.87891 209.314C5.57422 209.314 7.66406 207.596 7.68359 204.627C7.66406 201.736 5.57422 199.998 2.87891 200.018C0.0859375 199.998 -2.00391 201.736 -1.96484 204.627ZM-1.45703 228.299V216.385H3.58203V224.314H23.3086V228.299H-1.45703Z" fill="#6E6E73"/>
<path d="M103.562 225.33L104.715 218.26H99.1484L97.9766 225.33H93.6016L94.7734 218.26H90.8672L91.6094 213.924H95.4766L96.375 208.455H92.5078L93.2109 204.08H97.0977L98.25 197.049H102.625L101.473 204.08H107.02L108.172 197.049H112.547L111.395 204.08H115.281L114.539 208.455H110.672L109.773 213.924H113.68L112.938 218.26H109.07L107.898 225.33H103.562ZM99.8516 213.924H105.418L106.316 208.455H100.75L99.8516 213.924ZM132.625 215.525C140.398 215.525 145.281 217.986 145.32 222.244C145.281 226.443 140.398 228.943 132.625 228.924C124.91 228.943 119.949 226.443 119.969 222.244C119.949 217.986 124.91 215.525 132.625 215.525ZM116.688 213.26V209.236H128.797V203.025H133.719V209.236H148.953V213.26H116.688ZM120.32 198.885V194.979H145.125V197.869C145.145 200.701 145.145 203.748 144.109 207.4L139.227 206.932C140.027 203.709 140.125 201.307 140.164 198.885H120.32ZM124.93 222.244C124.91 224.158 127.723 225.135 132.625 225.135C137.527 225.135 140.359 224.158 140.359 222.244C140.359 220.271 137.527 219.217 132.625 219.236C127.723 219.217 124.91 220.271 124.93 222.244ZM179.383 193.377V201.15H184.188V205.252H179.383V213.26H174.383V193.377H179.383ZM150.789 210.096C158.777 208.104 163.172 204.158 163.973 199.432H152.547V195.447H169.422C169.402 204.861 163.445 211.229 152.781 214.041L150.789 210.096ZM156.141 228.494V214.588H179.383V228.494H156.141ZM161.102 224.588H174.461V218.611H161.102V224.588ZM214.578 202.283V206.268H189.852V193.924H194.812V202.283H214.578ZM185.75 213.377V209.314H218.25V213.377H185.75ZM189.461 222.205C189.461 218.006 194.148 215.623 201.922 215.604C209.637 215.623 214.266 218.006 214.305 222.205C214.266 226.443 209.637 228.807 201.922 228.807C194.148 228.807 189.461 226.443 189.461 222.205ZM194.539 222.205C194.52 224.061 197 224.998 201.922 225.018C206.746 224.998 209.285 224.061 209.305 222.205C209.285 220.311 206.746 219.51 201.922 219.471C197 219.51 194.52 220.311 194.539 222.205ZM237.391 195.447V206.541H226.648V210.33C231.922 210.33 235.086 210.154 238.68 209.471L239.148 213.455C234.988 214.197 231.258 214.295 224.383 214.314H221.727V202.83H232.391V199.354H221.648V195.447H237.391ZM225.789 220.877V216.893H250.281V228.924H245.32V220.877H225.789ZM239.422 209.822V205.877H245.32V202.283H239.422V198.338H245.32V193.416H250.281V215.291H245.32V209.822H239.422ZM268.016 203.064C267.996 208.475 270.887 214.725 276.727 217.439L273.953 221.346C269.988 219.529 267.176 215.896 265.574 211.639C263.992 216.326 261.062 220.311 256.961 222.244L254.07 218.299C259.988 215.545 262.977 208.943 263.016 203.064V200.877H255.477V196.814H275.164V200.877H268.016V203.064ZM277.938 228.924V193.377H282.938V206.932H288.172V211.111H282.938V228.924H277.938Z" fill="#D2D2D7"/>
<rect x="330.5" y="174.33" width="208" height="74" rx="37" fill="#F5F5F7"/>
<path d="M365.848 225.33L367 218.26H361.434L360.262 225.33H355.887L357.059 218.26H353.152L353.895 213.924H357.762L358.66 208.455H354.793L355.496 204.08H359.383L360.535 197.049H364.91L363.758 204.08H369.305L370.457 197.049H374.832L373.68 204.08H377.566L376.824 208.455H372.957L372.059 213.924H375.965L375.223 218.26H371.355L370.184 225.33H365.848ZM362.137 213.924H367.703L368.602 208.455H363.035L362.137 213.924ZM407.566 195.369V198.377C407.586 201.385 407.586 204.764 406.785 209.119H411.434V213.104H378.895V209.119H401.707C402.488 205.154 402.586 202.166 402.605 199.354H382.879V195.369H407.566ZM383.035 228.26V216.229H387.957V224.275H408.582V228.26H383.035ZM443.23 193.416V213.455H438.23V193.416H443.23ZM413.348 208.924C419.305 207.127 421.902 202.576 421.902 198.143V194.705H427.098V198.143C427.059 202.459 429.676 206.6 435.418 208.377L432.996 212.166C428.934 210.955 426.121 208.494 424.52 205.311C422.898 208.768 420.008 211.502 415.77 212.83L413.348 208.924ZM419.402 228.533V215.096H443.23V228.533H419.402ZM424.324 224.549H438.348V219.041H424.324V224.549ZM456.59 214.158V217.713H460.418V214.158H465.027V224.959C468.973 223.162 470.652 219.842 470.652 216.619V213.885H475.652V216.619C475.633 220.252 477.371 223.689 481.824 225.135L479.246 228.846C476.18 227.791 474.207 225.76 473.074 223.201C471.902 225.682 469.949 227.732 467.059 228.846L465.027 225.779V228.533H451.98V214.158H456.59ZM448.504 203.064C448.465 198.182 452.488 194.725 457.957 194.705C462.469 194.725 466.082 197.225 467.059 200.994H473.035V193.377H477.996V212.205H473.035V205.096H467.078C466.121 208.943 462.488 211.502 457.957 211.502C452.488 211.502 448.465 208.025 448.504 203.064ZM453.23 203.064C453.211 205.76 455.164 207.42 457.957 207.439C460.652 207.42 462.586 205.76 462.605 203.064C462.586 200.447 460.652 198.826 457.957 198.807C455.164 198.826 453.211 200.447 453.23 203.064ZM456.59 224.744H460.418V221.385H456.59V224.744ZM511.473 203.064V206.971H486.629V194.627H491.59V203.064H511.473ZM482.566 214.705V210.799H515.105V214.705H482.566ZM486.316 228.143V217.596H491.316V224.158H511.707V228.143H486.316Z" fill="#6E6E73"/>
<path d="M593.633 225.33L594.785 218.26H589.219L588.047 225.33H583.672L584.844 218.26H580.938L581.68 213.924H585.547L586.445 208.455H582.578L583.281 204.08H587.168L588.32 197.049H592.695L591.543 204.08H597.09L598.242 197.049H602.617L601.465 204.08H605.352L604.609 208.455H600.742L599.844 213.924H603.75L603.008 218.26H599.141L597.969 225.33H593.633ZM589.922 213.924H595.488L596.387 208.455H590.82L589.922 213.924ZM619.805 203.064C619.785 208.475 622.676 214.725 628.516 217.439L625.742 221.346C621.777 219.529 618.965 215.896 617.363 211.639C615.781 216.326 612.852 220.311 608.75 222.244L605.859 218.299C611.777 215.545 614.766 208.943 614.805 203.064V200.877H607.266V196.814H626.953V200.877H619.805V203.064ZM629.727 228.924V193.377H634.727V206.932H639.961V211.111H634.727V228.924H629.727ZM650.312 194.666V198.221H664.57V194.666H669.531V209.197H659.922V212.205H673.672V216.189H641.25V212.205H654.922V209.197H645.391V194.666H650.312ZM645.156 228.299V218.221H650.156V224.314H670V228.299H645.156ZM650.312 205.213H664.57V202.049H650.312V205.213ZM703.867 193.377V207.01H708.906V211.111H703.867V228.846H698.867V193.377H703.867ZM675.43 218.885C683.848 214.666 688.379 209.002 689.316 201.072H677.461V197.01H694.375C694.336 207.635 690.195 216.834 678.242 222.713L675.43 218.885Z" fill="#D2D2D7"/>
<path d="M786.633 225.33L787.785 218.26H782.219L781.047 225.33H776.672L777.844 218.26H773.938L774.68 213.924H778.547L779.445 208.455H775.578L776.281 204.08H780.168L781.32 197.049H785.695L784.543 204.08H790.09L791.242 197.049H795.617L794.465 204.08H798.352L797.609 208.455H793.742L792.844 213.924H796.75L796.008 218.26H792.141L790.969 225.33H786.633ZM782.922 213.924H788.488L789.387 208.455H783.82L782.922 213.924ZM828.508 202.283V206.268H803.781V193.924H808.742V202.283H828.508ZM799.68 213.377V209.314H832.18V213.377H799.68ZM803.391 222.205C803.391 218.006 808.078 215.623 815.852 215.604C823.566 215.623 828.195 218.006 828.234 222.205C828.195 226.443 823.566 228.807 815.852 228.807C808.078 228.807 803.391 226.443 803.391 222.205ZM808.469 222.205C808.449 224.061 810.93 224.998 815.852 225.018C820.676 224.998 823.215 224.061 823.234 222.205C823.215 220.311 820.676 219.51 815.852 219.471C810.93 219.51 808.449 220.311 808.469 222.205ZM851.32 195.447V206.541H840.578V210.33C845.852 210.33 849.016 210.154 852.609 209.471L853.078 213.455C848.918 214.197 845.188 214.295 838.312 214.314H835.656V202.83H846.32V199.354H835.578V195.447H851.32ZM839.719 220.877V216.893H864.211V228.924H859.25V220.877H839.719ZM853.352 209.822V205.877H859.25V202.283H853.352V198.338H859.25V193.416H864.211V215.291H859.25V209.822H853.352ZM881.945 203.064C881.926 208.475 884.816 214.725 890.656 217.439L887.883 221.346C883.918 219.529 881.105 215.896 879.504 211.639C877.922 216.326 874.992 220.311 870.891 222.244L868 218.299C873.918 215.545 876.906 208.943 876.945 203.064V200.877H869.406V196.814H889.094V200.877H881.945V203.064ZM891.867 228.924V193.377H896.867V206.932H902.102V211.111H896.867V228.924H891.867Z" fill="#D2D2D7"/>
<rect x="944.5" y="174.33" width="208" height="74" rx="37" fill="#F5F5F7"/>
<path d="M979.848 225.33L981 218.26H975.434L974.262 225.33H969.887L971.059 218.26H967.152L967.895 213.924H971.762L972.66 208.455H968.793L969.496 204.08H973.383L974.535 197.049H978.91L977.758 204.08H983.305L984.457 197.049H988.832L987.68 204.08H991.566L990.824 208.455H986.957L986.059 213.924H989.965L989.223 218.26H985.355L984.184 225.33H979.848ZM976.137 213.924H981.703L982.602 208.455H977.035L976.137 213.924ZM1021.1 193.377V201.658H1025.9V205.721H1021.1V213.885H1016.1V193.377H1021.1ZM994.34 212.01V195.369H999.34V207.889C1003.66 207.83 1008.29 207.498 1013.21 206.541L1013.79 210.525C1007.93 211.736 1002.41 211.99 997.387 212.01H994.34ZM997.387 219.471V215.486H1021.1V228.924H1016.1V219.471H997.387ZM1040.55 201.736C1040.57 205.74 1043.17 209.822 1048.95 211.58L1046.57 215.447C1042.58 214.295 1039.77 211.854 1038.17 208.768C1036.59 212.107 1033.77 214.744 1029.65 216.033L1027.23 212.127C1033.01 210.389 1035.59 206.072 1035.59 201.736V201.463H1028.44V197.557H1035.59V193.611H1040.63V197.557H1047.74V201.463H1040.55V201.736ZM1033.83 228.299V217.518H1038.83V224.314H1058.29V228.299H1033.83ZM1046.57 207.791V203.768H1052.46V193.416H1057.43V219.783H1052.46V207.791H1046.57ZM1082.54 195.369V199.314H1075.47C1075.49 203.494 1078.03 207.811 1083.64 209.666L1081.18 213.494C1077.25 212.264 1074.54 209.686 1072.99 206.502C1071.41 210.037 1068.58 212.889 1064.38 214.236L1061.84 210.291C1067.7 208.436 1070.36 203.729 1070.39 199.314H1063.25V195.369H1082.54ZM1067.58 220.096V216.111H1092V228.924H1087.04V220.096H1067.58ZM1081.53 205.994V201.932H1087.04V193.377H1092V214.549H1087.04V205.994H1081.53ZM1126.37 193.416V218.963H1121.37V193.416H1126.37ZM1097.15 204.627C1097.15 199.412 1101.41 195.662 1106.88 195.682C1112.33 195.662 1116.59 199.412 1116.61 204.627C1116.59 209.92 1112.33 213.65 1106.88 213.65C1101.41 213.65 1097.15 209.92 1097.15 204.627ZM1102.04 204.627C1102 207.596 1104.09 209.314 1106.88 209.314C1109.57 209.314 1111.66 207.596 1111.68 204.627C1111.66 201.736 1109.57 199.998 1106.88 200.018C1104.09 199.998 1102 201.736 1102.04 204.627ZM1102.54 228.299V216.385H1107.58V224.314H1127.31V228.299H1102.54Z" fill="#6E6E73"/>
<rect x="1172.5" y="174.33" width="173" height="74" rx="37" fill="#F5F5F7"/>
<path d="M1207.63 225.33L1208.79 218.26H1203.22L1202.05 225.33H1197.67L1198.84 218.26H1194.94L1195.68 213.924H1199.55L1200.45 208.455H1196.58L1197.28 204.08H1201.17L1202.32 197.049H1206.7L1205.54 204.08H1211.09L1212.24 197.049H1216.62L1215.46 204.08H1219.35L1218.61 208.455H1214.74L1213.84 213.924H1217.75L1217.01 218.26H1213.14L1211.97 225.33H1207.63ZM1203.92 213.924H1209.49L1210.39 208.455H1204.82L1203.92 213.924ZM1251.23 193.416V214.744H1246.5V205.994H1243.53V213.65H1238.88V194.041H1243.53V201.932H1246.5V193.416H1251.23ZM1221.93 212.166V196.424H1236.07V212.166H1221.93ZM1226.62 208.455H1231.42V200.252H1226.62V208.455ZM1226.77 222.088C1226.75 217.908 1231.54 215.35 1239.08 215.369C1246.58 215.35 1251.38 217.908 1251.42 222.088C1251.38 226.365 1246.58 228.943 1239.08 228.924C1231.54 228.943 1226.75 226.365 1226.77 222.088ZM1231.77 222.088C1231.73 224.139 1234.41 225.135 1239.08 225.135C1243.71 225.135 1246.38 224.139 1246.38 222.088C1246.38 220.174 1243.71 219.178 1239.08 219.158C1234.41 219.178 1231.73 220.174 1231.77 222.088ZM1272.32 195.018V204.783H1261.58V207.361C1266.09 207.342 1269.55 207.283 1273.61 206.736L1274 210.525C1269.14 211.189 1265.13 211.229 1259.31 211.229H1256.66V201.189H1267.32V198.729H1256.58V195.018H1272.32ZM1261.27 216.971V213.299H1285.21V222.674H1266.27V224.9H1286.27V228.729H1261.3V219.119H1280.29V216.971H1261.27ZM1274.35 207.791V203.768H1280.25V201.111H1274.35V197.166H1280.25V193.377H1285.21V211.932H1280.25V207.791H1274.35ZM1318.02 193.416V204.314H1322.83V208.377H1318.02V219.939H1313.02V193.416H1318.02ZM1289.82 201.072V197.127H1297.91V193.338H1302.87V197.127H1310.91V201.072H1289.82ZM1291.54 209.197C1291.54 205.076 1295.19 202.322 1300.37 202.322C1305.52 202.322 1309.12 205.076 1309.12 209.197C1309.12 213.299 1305.52 215.994 1300.37 215.994C1295.19 215.994 1291.54 213.299 1291.54 209.197ZM1294.98 228.299V217.908H1299.94V224.314H1319.31V228.299H1294.98ZM1296.42 209.197C1296.4 211.15 1297.98 212.205 1300.37 212.205C1302.77 212.205 1304.39 211.15 1304.39 209.197C1304.39 207.225 1302.77 206.131 1300.37 206.111C1297.98 206.131 1296.4 207.225 1296.42 209.197Z" fill="#6E6E73"/>
<path d="M1400.63 225.33L1401.79 218.26H1396.22L1395.05 225.33H1390.67L1391.84 218.26H1387.94L1388.68 213.924H1392.55L1393.45 208.455H1389.58L1390.28 204.08H1394.17L1395.32 197.049H1399.7L1398.54 204.08H1404.09L1405.24 197.049H1409.62L1408.46 204.08H1412.35L1411.61 208.455H1407.74L1406.84 213.924H1410.75L1410.01 218.26H1406.14L1404.97 225.33H1400.63ZM1396.92 213.924H1402.49L1403.39 208.455H1397.82L1396.92 213.924ZM1433.52 196.424V200.33H1413.76V196.424H1421.41V193.064H1426.38V196.424H1433.52ZM1415.52 208.455C1415.48 204.451 1419.05 201.639 1423.84 201.619C1428.66 201.639 1432.23 204.451 1432.27 208.455C1432.23 212.342 1428.66 215.213 1423.84 215.213C1419.05 215.213 1415.48 212.342 1415.52 208.455ZM1419.23 221.58V217.635H1443.64V228.924H1438.68V221.58H1419.23ZM1420.16 208.455C1420.14 210.291 1421.67 211.424 1423.84 211.424C1425.98 211.424 1427.62 210.291 1427.62 208.455C1427.62 206.521 1425.98 205.369 1423.84 205.369C1421.65 205.369 1420.14 206.521 1420.16 208.455ZM1433.84 212.205V208.182H1438.68V205.291H1433.91V201.346H1438.68V193.377H1443.64V215.955H1438.68V212.205H1433.84ZM1478.02 193.416V219.354H1473.02V193.416H1478.02ZM1448.13 210.564C1454.09 208.572 1456.69 203.631 1456.69 198.807V195.369H1461.88V198.807C1461.84 203.514 1464.36 208.104 1470.2 209.979L1467.66 213.885C1463.64 212.557 1460.89 209.9 1459.3 206.521C1457.7 210.154 1454.87 213.084 1450.71 214.51L1448.13 210.564ZM1454.19 228.299V216.854H1459.23V224.314H1478.95V228.299H1454.19ZM1510.87 193.377V207.01H1515.91V211.111H1510.87V228.846H1505.87V193.377H1510.87ZM1482.43 218.885C1490.85 214.666 1495.38 209.002 1496.32 201.072H1484.46V197.01H1501.38C1501.34 207.635 1497.2 216.834 1485.24 222.713L1482.43 218.885Z" fill="#D2D2D7"/>
<path d="M1593.63 225.33L1594.79 218.26H1589.22L1588.05 225.33H1583.67L1584.84 218.26H1580.94L1581.68 213.924H1585.55L1586.45 208.455H1582.58L1583.28 204.08H1587.17L1588.32 197.049H1592.7L1591.54 204.08H1597.09L1598.24 197.049H1602.62L1601.46 204.08H1605.35L1604.61 208.455H1600.74L1599.84 213.924H1603.75L1603.01 218.26H1599.14L1597.97 225.33H1593.63ZM1589.92 213.924H1595.49L1596.39 208.455H1590.82L1589.92 213.924ZM1636.64 193.416V220.486H1631.68V213.768H1626.88V209.822H1631.68V206.268H1626.88V202.244H1631.68V193.416H1636.64ZM1606.76 201.072V197.127H1614.41V193.338H1619.38V197.127H1626.52V201.072H1606.76ZM1608.52 209.314C1608.48 205.213 1612.01 202.322 1616.84 202.322C1621.72 202.322 1625.23 205.213 1625.27 209.314C1625.23 213.416 1621.72 216.268 1616.84 216.268C1612.01 216.268 1608.48 213.416 1608.52 209.314ZM1612.97 228.299V218.182H1618.01V224.314H1637.38V228.299H1612.97ZM1613.16 209.314C1613.14 211.365 1614.67 212.479 1616.84 212.479C1618.98 212.479 1620.57 211.365 1620.59 209.314C1620.57 207.322 1618.98 206.209 1616.84 206.189C1614.67 206.209 1613.14 207.322 1613.16 209.314ZM1670.98 193.377V211.385H1666.02V193.377H1670.98ZM1641.09 207.557C1647.03 205.779 1649.69 201.307 1649.69 196.893V194.158H1654.88V196.893C1654.84 201.209 1657.42 205.33 1663.24 207.01L1660.82 210.838C1656.74 209.666 1653.93 207.186 1652.3 204.021C1650.7 207.479 1647.79 210.193 1643.55 211.463L1641.09 207.557ZM1647.15 216.775V212.908H1671.02V222.557H1652.11V224.744H1671.99V228.689H1647.23V218.846H1666.05V216.775H1647.15ZM1703.87 193.377V207.01H1708.91V211.111H1703.87V228.846H1698.87V193.377H1703.87ZM1675.43 218.885C1683.85 214.666 1688.38 209.002 1689.32 201.072H1677.46V197.01H1694.38C1694.34 207.635 1690.2 216.834 1678.24 222.713L1675.43 218.885Z" fill="#D2D2D7"/>
<rect x="1751.5" y="174.33" width="277" height="74" rx="37" fill="#F5F5F7"/>
<path d="M1786.78 225.33L1787.93 218.26H1782.36L1781.19 225.33H1776.82L1777.99 218.26H1774.08L1774.82 213.924H1778.69L1779.59 208.455H1775.72L1776.43 204.08H1780.31L1781.46 197.049H1785.84L1784.69 204.08H1790.23L1791.39 197.049H1795.76L1794.61 204.08H1798.5L1797.75 208.455H1793.89L1792.99 213.924H1796.89L1796.15 218.26H1792.29L1791.11 225.33H1786.78ZM1783.07 213.924H1788.63L1789.53 208.455H1783.96L1783.07 213.924ZM1828.03 193.377V203.572H1832.83V207.713H1828.03V219.275H1823.03V193.377H1828.03ZM1800.06 204.705C1800.04 199.412 1804.36 195.662 1809.82 195.682C1815.27 195.662 1819.51 199.412 1819.51 204.705C1819.51 209.92 1815.27 213.729 1809.82 213.729C1804.36 213.729 1800.04 209.92 1800.06 204.705ZM1804.98 228.299V216.541H1809.94V224.314H1829.32V228.299H1804.98ZM1804.98 204.705C1804.94 207.596 1807.11 209.393 1809.82 209.393C1812.56 209.393 1814.65 207.596 1814.67 204.705C1814.65 201.736 1812.56 199.998 1809.82 200.018C1807.11 199.998 1804.94 201.736 1804.98 204.705ZM1864.36 193.377V214.471H1859.39V206.072H1853.85V202.049H1859.39V193.377H1864.36ZM1834.16 210.564C1839.98 208.611 1842.64 203.963 1842.75 199.51H1835.61V195.525H1854.9V199.51H1847.83C1847.93 203.65 1850.47 207.83 1856 209.666L1853.54 213.572C1849.63 212.303 1846.91 209.725 1845.37 206.541C1843.81 210.154 1840.96 213.064 1836.74 214.51L1834.16 210.564ZM1839.98 222.127C1839.98 217.811 1844.63 215.271 1852.21 215.252C1859.8 215.271 1864.45 217.811 1864.47 222.127C1864.45 226.443 1859.8 228.963 1852.21 228.963C1844.63 228.963 1839.98 226.443 1839.98 222.127ZM1844.94 222.127C1844.94 224.158 1847.5 225.174 1852.21 225.174C1856.93 225.174 1859.49 224.158 1859.51 222.127C1859.49 220.076 1856.93 219.061 1852.21 219.08C1847.5 219.061 1844.94 220.076 1844.94 222.127ZM1882.75 203.064C1882.73 208.807 1885.7 214.959 1891.66 217.439L1888.96 221.346C1884.79 219.568 1881.89 216.033 1880.29 211.736C1878.69 216.404 1875.74 220.311 1871.54 222.244L1868.69 218.299C1874.59 215.662 1877.64 209.08 1877.64 203.064V200.877H1870.1V196.814H1890.18V200.877H1882.75V203.064ZM1893.69 228.924V193.377H1898.73V228.924H1893.69ZM1936.35 198.572V202.596H1931.74V206.229H1936.35V210.291H1931.74V215.955H1926.74V193.377H1931.74V198.572H1936.35ZM1903.54 200.643V196.775H1911.62V193.182H1916.58V196.775H1924.63V200.643H1903.54ZM1905.25 208.26C1905.25 204.471 1908.85 201.873 1914.08 201.854C1919.26 201.873 1922.83 204.471 1922.83 208.26C1922.83 212.088 1919.26 214.627 1914.08 214.627C1908.87 214.627 1905.25 212.088 1905.25 208.26ZM1908.11 222.635C1908.07 218.631 1912.66 216.287 1920.14 216.268C1927.44 216.287 1932.11 218.631 1932.13 222.635C1932.11 226.541 1927.44 228.943 1920.14 228.924C1912.66 228.943 1908.07 226.541 1908.11 222.635ZM1910.14 208.26C1910.12 210.018 1911.7 210.936 1914.08 210.916C1916.48 210.936 1918.11 210.018 1918.11 208.26C1918.11 206.482 1916.48 205.506 1914.08 205.486C1911.7 205.506 1910.12 206.482 1910.14 208.26ZM1913.03 222.635C1913.01 224.295 1915.47 225.213 1920.14 225.213C1924.67 225.213 1927.13 224.295 1927.13 222.635C1927.13 220.857 1924.67 220.076 1920.14 220.057C1915.47 220.076 1913.01 220.857 1913.03 222.635ZM1958.61 195.369V199.314H1951.54C1951.56 203.494 1954.1 207.811 1959.71 209.666L1957.25 213.494C1953.32 212.264 1950.61 209.686 1949.06 206.502C1947.48 210.037 1944.65 212.889 1940.45 214.236L1937.91 210.291C1943.77 208.436 1946.43 203.729 1946.46 199.314H1939.32V195.369H1958.61ZM1943.65 220.096V216.111H1968.07V228.924H1963.11V220.096H1943.65ZM1957.6 205.994V201.932H1963.11V193.377H1968.07V214.549H1963.11V205.994H1957.6ZM2002.44 193.416V218.963H1997.44V193.416H2002.44ZM1973.22 204.627C1973.22 199.412 1977.48 195.662 1982.95 195.682C1988.4 195.662 1992.66 199.412 1992.68 204.627C1992.66 209.92 1988.4 213.65 1982.95 213.65C1977.48 213.65 1973.22 209.92 1973.22 204.627ZM1978.11 204.627C1978.07 207.596 1980.16 209.314 1982.95 209.314C1985.64 209.314 1987.73 207.596 1987.75 204.627C1987.73 201.736 1985.64 199.998 1982.95 200.018C1980.16 199.998 1978.07 201.736 1978.11 204.627ZM1978.61 228.299V216.385H1983.65V224.314H2003.38V228.299H1978.61Z" fill="#6E6E73"/>
<path d="M-47.3672 319.33L-46.2148 312.26H-51.7812L-52.9531 319.33H-57.3281L-56.1562 312.26H-60.0625L-59.3203 307.924H-55.4531L-54.5547 302.455H-58.4219L-57.7188 298.08H-53.832L-52.6797 291.049H-48.3047L-49.457 298.08H-43.9102L-42.7578 291.049H-38.3828L-39.5352 298.08H-35.6484L-36.3906 302.455H-40.2578L-41.1562 307.924H-37.25L-37.9922 312.26H-41.8594L-43.0312 319.33H-47.3672ZM-51.0781 307.924H-45.5117L-44.6133 302.455H-50.1797L-51.0781 307.924ZM-20.5312 297.064C-20.5508 302.807 -17.582 308.959 -11.625 311.439L-14.3203 315.346C-18.5 313.568 -21.3906 310.033 -22.9922 305.736C-24.5938 310.404 -27.543 314.311 -31.7422 316.244L-34.5938 312.299C-28.6953 309.662 -25.6484 303.08 -25.6484 297.064V294.877H-33.1875V290.814H-13.1094V294.877H-20.5312V297.064ZM-9.59375 322.924V287.377H-4.55469V322.924H-9.59375ZM30.3672 287.416V314.252H25.3672V311.439H18.5703V308.041H25.3672V287.416H30.3672ZM0.132812 303.158C6.63672 303.119 15.4258 303.021 22.9453 302.104L23.2188 305.658C20.4062 306.127 17.4961 306.459 14.625 306.674V313.432H9.625V318.314H31.1484V322.299H4.66406V311.674H9.625V306.967C6.44141 307.084 3.41406 307.104 0.71875 307.104L0.132812 303.158ZM2.75 294.994C2.75 291.205 6.40234 288.607 11.6953 288.627C16.8516 288.607 20.543 291.205 20.5625 294.994C20.543 298.803 16.8516 301.264 11.6953 301.244C6.40234 301.264 2.75 298.803 2.75 294.994ZM7.47656 294.994C7.45703 296.713 9.15625 297.67 11.6953 297.65C14.0781 297.67 15.7969 296.713 15.8359 294.994C15.7969 293.236 14.0781 292.26 11.6953 292.26C9.15625 292.26 7.45703 293.236 7.47656 294.994ZM47.9453 297.064C47.9258 302.475 50.8164 308.725 56.6562 311.439L53.8828 315.346C49.918 313.529 47.1055 309.896 45.5039 305.639C43.9219 310.326 40.9922 314.311 36.8906 316.244L34 312.299C39.918 309.545 42.9062 302.943 42.9453 297.064V294.877H35.4062V290.814H55.0938V294.877H47.9453V297.064ZM57.8672 322.924V287.377H62.8672V300.932H68.1016V305.111H62.8672V322.924H57.8672Z" fill="#D2D2D7"/>
<rect x="110.5" y="268.33" width="173" height="74" rx="37" fill="#F5F5F7"/>
<path d="M145.633 319.33L146.785 312.26H141.219L140.047 319.33H135.672L136.844 312.26H132.938L133.68 307.924H137.547L138.445 302.455H134.578L135.281 298.08H139.168L140.32 291.049H144.695L143.543 298.08H149.09L150.242 291.049H154.617L153.465 298.08H157.352L156.609 302.455H152.742L151.844 307.924H155.75L155.008 312.26H151.141L149.969 319.33H145.633ZM141.922 307.924H147.488L148.387 302.455H142.82L141.922 307.924ZM170.086 296.322C170.066 302.084 171.668 308.021 176.531 311.127L173.836 314.994C170.75 313.139 168.816 310.053 167.684 306.42C166.414 310.443 164.285 313.822 161.062 315.775L158.016 312.104C163.289 308.842 165.242 302.572 165.242 296.557V290.424H170.086V296.322ZM172.781 303.432V299.369H177.391V287.885H182.039V321.283H177.391V303.432H172.781ZM184.734 322.924V287.377H189.5V322.924H184.734ZM223.016 287.416V307.455H218.016V287.416H223.016ZM193.133 302.924C199.09 301.127 201.688 296.576 201.688 292.143V288.705H206.883V292.143C206.844 296.459 209.461 300.6 215.203 302.377L212.781 306.166C208.719 304.955 205.906 302.494 204.305 299.311C202.684 302.768 199.793 305.502 195.555 306.83L193.133 302.924ZM199.188 322.533V309.096H223.016V322.533H199.188ZM204.109 318.549H218.133V313.041H204.109V318.549ZM256.023 287.416V298.314H260.828V302.377H256.023V313.939H251.023V287.416H256.023ZM227.82 295.072V291.127H235.906V287.338H240.867V291.127H248.914V295.072H227.82ZM229.539 303.197C229.539 299.076 233.191 296.322 238.367 296.322C243.523 296.322 247.117 299.076 247.117 303.197C247.117 307.299 243.523 309.994 238.367 309.994C233.191 309.994 229.539 307.299 229.539 303.197ZM232.977 322.299V311.908H237.938V318.314H257.312V322.299H232.977ZM234.422 303.197C234.402 305.15 235.984 306.205 238.367 306.205C240.77 306.205 242.391 305.15 242.391 303.197C242.391 301.225 240.77 300.131 238.367 300.111C235.984 300.131 234.402 301.225 234.422 303.197Z" fill="#6E6E73"/>
<rect x="303.5" y="268.33" width="208" height="74" rx="37" fill="#F5F5F7"/>
<path d="M338.848 319.33L340 312.26H334.434L333.262 319.33H328.887L330.059 312.26H326.152L326.895 307.924H330.762L331.66 302.455H327.793L328.496 298.08H332.383L333.535 291.049H337.91L336.758 298.08H342.305L343.457 291.049H347.832L346.68 298.08H350.566L349.824 302.455H345.957L345.059 307.924H348.965L348.223 312.26H344.355L343.184 319.33H338.848ZM335.137 307.924H340.703L341.602 302.455H336.035L335.137 307.924ZM382.637 287.377V322.924H377.91V305.072H374.473V321.205H369.902V287.963H374.473V301.088H377.91V287.377H382.637ZM352.91 314.877V291.479H366.152V295.502H357.91V310.697C361.348 310.639 364.395 310.443 367.832 309.838L368.184 313.9C363.848 314.721 360.059 314.857 355.371 314.877H352.91ZM416.23 287.377V323.002H411.191V287.377H416.23ZM388.223 314.682V290.189H393.223V298.861H400.879V290.189H405.801V314.682H388.223ZM393.223 310.658H400.879V302.729H393.223V310.658ZM449.082 287.377V301.283H454.316V305.385H449.082V322.924H444.16V287.377H449.082ZM420.84 296.674V292.689H428.887V287.924H433.887V292.689H441.738V296.674H420.84ZM422.285 307.143C422.266 302.182 426.133 298.646 431.387 298.666C436.562 298.646 440.449 302.182 440.449 307.143C440.449 312.104 436.562 315.6 431.387 315.619C426.133 315.6 422.266 312.104 422.285 307.143ZM427.051 307.143C427.051 309.896 428.867 311.537 431.387 311.518C433.867 311.537 435.684 309.896 435.684 307.143C435.684 304.408 433.867 302.729 431.387 302.689C428.867 302.729 427.051 304.408 427.051 307.143ZM484.473 297.064V300.971H459.629V288.627H464.59V297.064H484.473ZM455.566 308.705V304.799H488.105V308.705H455.566ZM459.316 322.143V311.596H464.316V318.158H484.707V322.143H459.316Z" fill="#6E6E73"/>
<path d="M566.633 319.33L567.785 312.26H562.219L561.047 319.33H556.672L557.844 312.26H553.938L554.68 307.924H558.547L559.445 302.455H555.578L556.281 298.08H560.168L561.32 291.049H565.695L564.543 298.08H570.09L571.242 291.049H575.617L574.465 298.08H578.352L577.609 302.455H573.742L572.844 307.924H576.75L576.008 312.26H572.141L570.969 319.33H566.633ZM562.922 307.924H568.488L569.387 302.455H563.82L562.922 307.924ZM612.219 314.721V318.783H579.68V314.721H593.391V308.158H583.117V289.643H588.117V295.15H603.625V289.643H608.586V308.158H598.352V314.721H612.219ZM588.117 304.174H603.625V299.135H588.117V304.174ZM645.227 291.869V295.854H615.656V291.869H627.961V287.729H632.883V291.869H645.227ZM614.25 319.291V315.307H627.961V311.225C621.906 310.678 618.234 308.197 618.273 304.291C618.234 299.975 622.902 297.396 630.422 297.416C637.805 297.396 642.551 299.975 642.531 304.291C642.551 308.197 638.84 310.678 632.883 311.205V315.307H646.789V319.291H614.25ZM623.391 304.291C623.371 306.4 625.812 307.357 630.422 307.338C634.934 307.357 637.414 306.4 637.414 304.291C637.414 302.26 634.934 301.303 630.422 301.283C625.812 301.303 623.371 302.26 623.391 304.291ZM661.945 297.064C661.926 302.475 664.816 308.725 670.656 311.439L667.883 315.346C663.918 313.529 661.105 309.896 659.504 305.639C657.922 310.326 654.992 314.311 650.891 316.244L648 312.299C653.918 309.545 656.906 302.943 656.945 297.064V294.877H649.406V290.814H669.094V294.877H661.945V297.064ZM671.867 322.924V287.377H676.867V300.932H682.102V305.111H676.867V322.924H671.867Z" fill="#D2D2D7"/>
<rect x="724.5" y="268.33" width="208" height="74" rx="37" fill="#F5F5F7"/>
<path d="M759.848 319.33L761 312.26H755.434L754.262 319.33H749.887L751.059 312.26H747.152L747.895 307.924H751.762L752.66 302.455H748.793L749.496 298.08H753.383L754.535 291.049H758.91L757.758 298.08H763.305L764.457 291.049H768.832L767.68 298.08H771.566L770.824 302.455H766.957L766.059 307.924H769.965L769.223 312.26H765.355L764.184 319.33H759.848ZM756.137 307.924H761.703L762.602 302.455H757.035L756.137 307.924ZM801.371 287.377V301.322H806.098V305.424H801.371V322.924H796.371V287.377H801.371ZM772.191 312.611C777.035 307.357 778.441 302.162 778.754 295.072H773.754V291.01H783.52C783.48 300.775 782.465 308.393 776.098 315.385L772.191 312.611ZM782.23 314.916C787.055 308.979 788.383 302.885 788.656 295.072H784.691V291.01H793.363C793.344 301.146 792.465 309.955 786.176 317.689L782.23 314.916ZM835.512 287.377V300.58H840.746V304.643H835.512V323.002H830.512V287.377H835.512ZM808.871 314.369V290.658H825.551V294.682H813.832V310.268C818.988 310.229 823.246 309.955 827.973 309.135L828.52 313.314C822.992 314.252 818.148 314.389 811.879 314.369H808.871ZM874.574 314.877V318.979H842.035V314.877H855.746V309.525H845.785V297.572H865.902V293.666H845.746V289.682H870.824V301.479H850.785V305.463H871.645V309.525H860.707V314.877H874.574ZM909.105 304.682V308.666H895.629V314.838H890.59V308.666H876.566V304.682H909.105ZM879.926 295.424C879.926 290.912 885.082 288.08 892.816 288.041C900.512 288.08 905.648 290.912 905.668 295.424C905.648 299.955 900.512 302.768 892.816 302.768C885.082 302.768 879.926 299.955 879.926 295.424ZM880.434 322.299V311.674H885.473V318.275H905.512V322.299H880.434ZM885.316 295.424C885.297 297.592 888.227 298.764 892.816 298.783C897.406 298.764 900.316 297.592 900.316 295.424C900.316 293.158 897.406 291.986 892.816 291.986C888.227 291.986 885.297 293.158 885.316 295.424Z" fill="#6E6E73"/>
<path d="M987.633 319.33L988.785 312.26H983.219L982.047 319.33H977.672L978.844 312.26H974.938L975.68 307.924H979.547L980.445 302.455H976.578L977.281 298.08H981.168L982.32 291.049H986.695L985.543 298.08H991.09L992.242 291.049H996.617L995.465 298.08H999.352L998.609 302.455H994.742L993.844 307.924H997.75L997.008 312.26H993.141L991.969 319.33H987.633ZM983.922 307.924H989.488L990.387 302.455H984.82L983.922 307.924ZM1019.55 290.15C1019.53 294.35 1023.82 298.979 1031.97 299.994L1030.02 304.018C1023.8 303.119 1019.25 300.248 1016.93 296.4C1014.59 300.229 1010.05 303.119 1003.92 304.018L1001.93 299.994C1010.02 298.979 1014.29 294.35 1014.31 290.15V288.432H1019.55V290.15ZM1000.68 310.775V306.713H1033.1V310.775H1019.27V322.924H1014.35V310.775H1000.68ZM1066.23 291.869V295.854H1036.66V291.869H1048.96V287.729H1053.88V291.869H1066.23ZM1035.25 319.291V315.307H1048.96V311.225C1042.91 310.678 1039.23 308.197 1039.27 304.291C1039.23 299.975 1043.9 297.396 1051.42 297.416C1058.8 297.396 1063.55 299.975 1063.53 304.291C1063.55 308.197 1059.84 310.678 1053.88 311.205V315.307H1067.79V319.291H1035.25ZM1044.39 304.291C1044.37 306.4 1046.81 307.357 1051.42 307.338C1055.93 307.357 1058.41 306.4 1058.41 304.291C1058.41 302.26 1055.93 301.303 1051.42 301.283C1046.81 301.303 1044.37 302.26 1044.39 304.291ZM1082.95 297.064C1082.93 302.475 1085.82 308.725 1091.66 311.439L1088.88 315.346C1084.92 313.529 1082.11 309.896 1080.5 305.639C1078.92 310.326 1075.99 314.311 1071.89 316.244L1069 312.299C1074.92 309.545 1077.91 302.943 1077.95 297.064V294.877H1070.41V290.814H1090.09V294.877H1082.95V297.064ZM1092.87 322.924V287.377H1097.87V300.932H1103.1V305.111H1097.87V322.924H1092.87Z" fill="#D2D2D7"/>
<path d="M1180.63 319.33L1181.79 312.26H1176.22L1175.05 319.33H1170.67L1171.84 312.26H1167.94L1168.68 307.924H1172.55L1173.45 302.455H1169.58L1170.28 298.08H1174.17L1175.32 291.049H1179.7L1178.54 298.08H1184.09L1185.24 291.049H1189.62L1188.46 298.08H1192.35L1191.61 302.455H1187.74L1186.84 307.924H1190.75L1190.01 312.26H1186.14L1184.97 319.33H1180.63ZM1176.92 307.924H1182.49L1183.39 302.455H1177.82L1176.92 307.924ZM1226.1 305.697V309.604H1193.6V305.697H1207.35V303.51H1197.66V288.236H1222.31V292.064H1202.66V294.057H1221.49V297.65H1202.66V299.682H1222.62V303.51H1212.35V305.697H1226.1ZM1197.39 317.064C1197.39 313.314 1201.88 311.205 1209.85 311.244C1217.68 311.205 1222.2 313.314 1222.23 317.064C1222.2 320.893 1217.68 322.943 1209.85 322.924C1201.88 322.943 1197.39 320.893 1197.39 317.064ZM1202.39 317.064C1202.35 318.588 1204.73 319.252 1209.85 319.252C1214.85 319.252 1217.21 318.588 1217.23 317.064C1217.21 315.58 1214.85 314.896 1209.85 314.916C1204.73 314.896 1202.35 315.58 1202.39 317.064ZM1246.88 298.08V301.908H1260.67V305.854H1228.25V301.908H1241.96V298.08H1246.88ZM1229.81 296.361C1237.96 295.6 1241.86 292.24 1241.88 288.432V287.689H1246.96V288.432C1246.94 292.24 1250.81 295.6 1258.95 296.361L1257.23 300.15C1251.14 299.428 1246.67 297.299 1244.38 294.018C1242.12 297.299 1237.66 299.428 1231.53 300.15L1229.81 296.361ZM1232 311.439V307.65H1256.73V316.83H1236.92V318.939H1257.66V322.689H1232.04V313.314H1251.8V311.439H1232ZM1275.95 297.064C1275.93 302.475 1278.82 308.725 1284.66 311.439L1281.88 315.346C1277.92 313.529 1275.11 309.896 1273.5 305.639C1271.92 310.326 1268.99 314.311 1264.89 316.244L1262 312.299C1267.92 309.545 1270.91 302.943 1270.95 297.064V294.877H1263.41V290.814H1283.09V294.877H1275.95V297.064ZM1285.87 322.924V287.377H1290.87V300.932H1296.1V305.111H1290.87V322.924H1285.87Z" fill="#D2D2D7"/>
<rect x="1338.5" y="268.33" width="173" height="74" rx="37" fill="#F5F5F7"/>
<path d="M1373.63 319.33L1374.79 312.26H1369.22L1368.05 319.33H1363.67L1364.84 312.26H1360.94L1361.68 307.924H1365.55L1366.45 302.455H1362.58L1363.28 298.08H1367.17L1368.32 291.049H1372.7L1371.54 298.08H1377.09L1378.24 291.049H1382.62L1381.46 298.08H1385.35L1384.61 302.455H1380.74L1379.84 307.924H1383.75L1383.01 312.26H1379.14L1377.97 319.33H1373.63ZM1369.92 307.924H1375.49L1376.39 302.455H1370.82L1369.92 307.924ZM1419.18 304.916V308.9H1386.68V304.916H1419.18ZM1390.59 322.26V311.674H1395.51V318.275H1415.82V322.26H1390.59ZM1390.62 302.025V288.666H1415.27V292.65H1395.59V298.041H1415.62V302.025H1390.62ZM1453.75 304.916V308.9H1421.25V304.916H1453.75ZM1425.16 322.26V311.674H1430.08V318.275H1450.39V322.26H1425.16ZM1425.2 302.025V288.666H1449.84V292.65H1430.16V298.041H1450.2V302.025H1425.2ZM1484.02 287.416V298.314H1488.83V302.377H1484.02V313.939H1479.02V287.416H1484.02ZM1455.82 295.072V291.127H1463.91V287.338H1468.87V291.127H1476.91V295.072H1455.82ZM1457.54 303.197C1457.54 299.076 1461.19 296.322 1466.37 296.322C1471.52 296.322 1475.12 299.076 1475.12 303.197C1475.12 307.299 1471.52 309.994 1466.37 309.994C1461.19 309.994 1457.54 307.299 1457.54 303.197ZM1460.98 322.299V311.908H1465.94V318.314H1485.31V322.299H1460.98ZM1462.42 303.197C1462.4 305.15 1463.98 306.205 1466.37 306.205C1468.77 306.205 1470.39 305.15 1470.39 303.197C1470.39 301.225 1468.77 300.131 1466.37 300.111C1463.98 300.131 1462.4 301.225 1462.42 303.197Z" fill="#6E6E73"/>
<path d="M1566.63 319.33L1567.79 312.26H1562.22L1561.05 319.33H1556.67L1557.84 312.26H1553.94L1554.68 307.924H1558.55L1559.45 302.455H1555.58L1556.28 298.08H1560.17L1561.32 291.049H1565.7L1564.54 298.08H1570.09L1571.24 291.049H1575.62L1574.46 298.08H1578.35L1577.61 302.455H1573.74L1572.84 307.924H1576.75L1576.01 312.26H1572.14L1570.97 319.33H1566.63ZM1562.92 307.924H1568.49L1569.39 302.455H1563.82L1562.92 307.924ZM1593.47 297.064C1593.45 302.807 1596.42 308.959 1602.38 311.439L1599.68 315.346C1595.5 313.568 1592.61 310.033 1591.01 305.736C1589.41 310.404 1586.46 314.311 1582.26 316.244L1579.41 312.299C1585.3 309.662 1588.35 303.08 1588.35 297.064V294.877H1580.81V290.814H1600.89V294.877H1593.47V297.064ZM1604.41 322.924V287.377H1609.45V322.924H1604.41ZM1619.95 290.541V298.549H1624.8V290.541H1629.41V314.486H1615.27V290.541H1619.95ZM1619.95 310.502H1624.8V302.455H1619.95V310.502ZM1632.38 321.283V287.885H1637.1V300.932H1640.3V287.377H1645.07V322.924H1640.3V304.994H1637.1V321.283H1632.38ZM1661.95 297.064C1661.93 302.475 1664.82 308.725 1670.66 311.439L1667.88 315.346C1663.92 313.529 1661.11 309.896 1659.5 305.639C1657.92 310.326 1654.99 314.311 1650.89 316.244L1648 312.299C1653.92 309.545 1656.91 302.943 1656.95 297.064V294.877H1649.41V290.814H1669.09V294.877H1661.95V297.064ZM1671.87 322.924V287.377H1676.87V300.932H1682.1V305.111H1676.87V322.924H1671.87Z" fill="#D2D2D7"/>
<path d="M1759.85 319.33L1761 312.26H1755.43L1754.26 319.33H1749.89L1751.06 312.26H1747.15L1747.89 307.924H1751.76L1752.66 302.455H1748.79L1749.5 298.08H1753.38L1754.54 291.049H1758.91L1757.76 298.08H1763.3L1764.46 291.049H1768.83L1767.68 298.08H1771.57L1770.82 302.455H1766.96L1766.06 307.924H1769.96L1769.22 312.26H1765.36L1764.18 319.33H1759.85ZM1756.14 307.924H1761.7L1762.6 302.455H1757.04L1756.14 307.924ZM1805.43 314.721V318.783H1772.89V314.721H1786.61V308.158H1776.33V289.643H1781.33V295.15H1796.84V289.643H1801.8V308.158H1791.57V314.721H1805.43ZM1781.33 304.174H1796.84V299.135H1781.33V304.174ZM1838.29 287.377V322.924H1833.52V287.377H1838.29ZM1807.43 296.713V292.768H1813.44V288.236H1818.4V292.768H1824.34V296.713H1807.43ZM1808.21 306.791C1808.19 301.869 1811.43 298.354 1815.79 298.354C1820.24 298.354 1823.44 301.869 1823.44 306.791C1823.44 311.771 1820.24 315.268 1815.79 315.268C1811.43 315.268 1808.19 311.771 1808.21 306.791ZM1812.54 306.791C1812.52 309.525 1813.83 311.127 1815.79 311.127C1817.78 311.127 1819.12 309.525 1819.14 306.791C1819.12 304.115 1817.78 302.494 1815.79 302.494C1813.83 302.494 1812.52 304.115 1812.54 306.791ZM1823.52 304.564V300.502H1826.49V287.963H1831.18V321.361H1826.49V304.564H1823.52ZM1860.98 290.58V314.447H1843.79V290.58H1860.98ZM1848.79 310.502H1856.14V294.486H1848.79V310.502ZM1866.76 323.002V287.377H1871.8V323.002H1866.76ZM1904.81 287.377V297.572H1909.61V301.713H1904.81V313.275H1899.81V287.377H1904.81ZM1876.84 298.705C1876.82 293.412 1881.14 289.662 1886.61 289.682C1892.05 289.662 1896.29 293.412 1896.29 298.705C1896.29 303.92 1892.05 307.729 1886.61 307.729C1881.14 307.729 1876.82 303.92 1876.84 298.705ZM1881.76 322.299V310.541H1886.72V318.314H1906.1V322.299H1881.76ZM1881.76 298.705C1881.72 301.596 1883.89 303.393 1886.61 303.393C1889.34 303.393 1891.43 301.596 1891.45 298.705C1891.43 295.736 1889.34 293.998 1886.61 294.018C1883.89 293.998 1881.72 295.736 1881.76 298.705Z" fill="#D2D2D7"/>
<rect x="-205.5" y="362.33" width="208" height="74" rx="37" fill="#F5F5F7"/>
<path d="M57.6328 413.33L58.7852 406.26H53.2188L52.0469 413.33H47.6719L48.8438 406.26H44.9375L45.6797 401.924H49.5469L50.4453 396.455H46.5781L47.2812 392.08H51.168L52.3203 385.049H56.6953L55.543 392.08H61.0898L62.2422 385.049H66.6172L65.4648 392.08H69.3516L68.6094 396.455H64.7422L63.8438 401.924H67.75L67.0078 406.26H63.1406L61.9688 413.33H57.6328ZM53.9219 401.924H59.4883L60.3867 396.455H54.8203L53.9219 401.924ZM100.641 381.416V407.354H95.6797V394.619H89.8594V390.596H95.6797V381.416H100.641ZM70.4844 399.346C76.3633 397.51 79.0195 392.881 79.0391 388.33V387.783H71.8906V383.799H91.1875V387.783H84.1172V388.369C84.0977 392.49 86.6367 396.885 92.2812 398.721L89.8203 402.666C85.8945 401.377 83.1797 398.799 81.6367 395.615C80.0547 399.15 77.2227 402.021 73.0234 403.408L70.4844 399.346ZM77.0469 416.299V405.088H82.0469V412.314H101.5V416.299H77.0469ZM138.18 386.299V390.361H133.453V393.877H138.18V397.979H133.453V402.979H128.453V381.416H133.453V386.299H138.18ZM106.5 387.354V383.369H122.828V394.268H111.5V397.666C117.359 397.627 121.344 397.432 125.875 396.611L126.422 400.596C121.324 401.514 116.754 401.748 109.547 401.729H106.539V390.479H117.984V387.354H106.5ZM109.508 408.604V404.619H133.453V416.885H128.453V408.604H109.508ZM167.867 381.377V395.01H172.906V399.111H167.867V416.846H162.867V381.377H167.867ZM139.43 406.885C147.848 402.666 152.379 397.002 153.316 389.072H141.461V385.01H158.375C158.336 395.635 154.195 404.834 142.242 410.713L139.43 406.885Z" fill="#D2D2D7"/>
<rect x="215.5" y="362.33" width="208" height="74" rx="37" fill="#F5F5F7"/>
<path d="M250.848 413.33L252 406.26H246.434L245.262 413.33H240.887L242.059 406.26H238.152L238.895 401.924H242.762L243.66 396.455H239.793L240.496 392.08H244.383L245.535 385.049H249.91L248.758 392.08H254.305L255.457 385.049H259.832L258.68 392.08H262.566L261.824 396.455H257.957L257.059 401.924H260.965L260.223 406.26H256.355L255.184 413.33H250.848ZM247.137 401.924H252.703L253.602 396.455H248.035L247.137 401.924ZM296.395 401.143V405.166H288.777V416.924H283.699V405.166H276.434V416.924H271.316V405.166H263.855V401.143H296.395ZM267.137 390.596C267.117 385.693 272.391 382.568 280.027 382.549C287.664 382.568 292.996 385.693 292.996 390.596C292.996 395.381 287.664 398.428 280.027 398.408C272.391 398.428 267.117 395.381 267.137 390.596ZM272.254 390.596C272.234 393.096 275.262 394.482 280.027 394.502C284.832 394.482 287.84 393.096 287.84 390.596C287.84 387.979 284.832 386.553 280.027 386.533C275.262 386.553 272.234 387.979 272.254 390.596ZM329.207 384.072V387.822H300.027V384.072H312.176V381.104H317.176V384.072H329.207ZM298.465 405.01V401.064H312.176V399.053C306.082 398.721 302.684 396.982 302.723 393.955C302.684 390.576 307.02 388.701 314.676 388.721C322.312 388.701 326.609 390.576 326.629 393.955C326.609 396.982 323.25 398.721 317.176 399.053V401.064H330.887V405.01H298.465ZM301.98 410.752V407.002H326.863V416.924H321.863V410.752H301.98ZM307.801 393.955C307.781 395.205 309.949 395.752 314.676 395.752C319.363 395.752 321.512 395.205 321.512 393.955C321.512 392.744 319.363 392.139 314.676 392.158C309.949 392.139 307.781 392.744 307.801 393.955ZM361.082 381.377V395.283H366.316V399.385H361.082V416.924H356.16V381.377H361.082ZM332.84 390.674V386.689H340.887V381.924H345.887V386.689H353.738V390.674H332.84ZM334.285 401.143C334.266 396.182 338.133 392.646 343.387 392.666C348.562 392.646 352.449 396.182 352.449 401.143C352.449 406.104 348.562 409.6 343.387 409.619C338.133 409.6 334.266 406.104 334.285 401.143ZM339.051 401.143C339.051 403.896 340.867 405.537 343.387 405.518C345.867 405.537 347.684 403.896 347.684 401.143C347.684 398.408 345.867 396.729 343.387 396.689C340.867 396.729 339.051 398.408 339.051 401.143ZM396.473 391.064V394.971H371.629V382.627H376.59V391.064H396.473ZM367.566 402.705V398.799H400.105V402.705H367.566ZM371.316 416.143V405.596H376.316V412.158H396.707V416.143H371.316Z" fill="#6E6E73"/>
<path d="M478.633 413.33L479.785 406.26H474.219L473.047 413.33H468.672L469.844 406.26H465.938L466.68 401.924H470.547L471.445 396.455H467.578L468.281 392.08H472.168L473.32 385.049H477.695L476.543 392.08H482.09L483.242 385.049H487.617L486.465 392.08H490.352L489.609 396.455H485.742L484.844 401.924H488.75L488.008 406.26H484.141L482.969 413.33H478.633ZM474.922 401.924H480.488L481.387 396.455H475.82L474.922 401.924ZM504.766 389.424C504.746 395.791 507.461 402.217 513.164 404.971L510.156 408.955C506.348 407.061 503.77 403.545 502.305 399.268C500.742 403.857 498.008 407.627 493.984 409.619L490.898 405.596C496.934 402.822 499.766 396.025 499.766 389.424V384.111H504.766V389.424ZM514.727 416.924V381.377H519.727V395.088H524.961V399.307H519.727V416.924H514.727ZM536.172 382.9C540.703 382.861 544.316 385.459 545.293 389.268H551.25V381.377H556.211V400.479H551.25V393.252H545.312C544.395 397.158 540.742 399.814 536.172 399.814C530.703 399.814 526.68 396.26 526.719 391.299C526.68 386.436 530.703 382.861 536.172 382.9ZM531.445 391.299C531.426 393.955 533.379 395.635 536.172 395.635C538.867 395.635 540.801 393.955 540.82 391.299C540.801 388.643 538.867 387.021 536.172 387.041C533.379 387.021 531.426 388.643 531.445 391.299ZM532.5 416.533V402.041H537.422V405.479H551.25V402.041H556.211V416.533H532.5ZM537.422 412.51H551.25V409.307H537.422V412.51ZM588.867 381.377V395.01H593.906V399.111H588.867V416.846H583.867V381.377H588.867ZM560.43 406.885C568.848 402.666 573.379 397.002 574.316 389.072H562.461V385.01H579.375C579.336 395.635 575.195 404.834 563.242 410.713L560.43 406.885Z" fill="#D2D2D7"/>
<path d="M671.633 413.33L672.785 406.26H667.219L666.047 413.33H661.672L662.844 406.26H658.938L659.68 401.924H663.547L664.445 396.455H660.578L661.281 392.08H665.168L666.32 385.049H670.695L669.543 392.08H675.09L676.242 385.049H680.617L679.465 392.08H683.352L682.609 396.455H678.742L677.844 401.924H681.75L681.008 406.26H677.141L675.969 413.33H671.633ZM667.922 401.924H673.488L674.387 396.455H668.82L667.922 401.924ZM704.953 385.127V389.033H697.766C697.824 392.666 700.363 396.299 706.086 397.783L703.82 401.689C699.777 400.615 696.984 398.369 695.383 395.518C693.82 398.76 690.969 401.338 686.789 402.588L684.406 398.682C690.129 397.119 692.766 393.096 692.805 389.033H685.656V385.127H692.805V381.221H697.844V385.127H704.953ZM689.055 410.244C689.035 405.928 693.664 403.486 701.242 403.486C708.664 403.486 713.215 405.928 713.234 410.244C713.215 414.443 708.664 416.885 701.242 416.885C693.664 416.885 689.035 414.443 689.055 410.244ZM694.055 410.244C694.016 412.178 696.516 413.135 701.242 413.135C705.852 413.135 708.312 412.178 708.312 410.244C708.312 408.213 705.852 407.314 701.242 407.314C696.516 407.314 694.016 408.213 694.055 410.244ZM707.883 402.822V381.377H712.883V389.814H717.688V393.838H712.883V402.822H707.883ZM751.789 408.76V412.783H719.25V408.76H733V400.83H738V408.76H751.789ZM720.578 398.447C727.961 397.256 732.375 392.803 732.805 388.096H721.945V384.072H748.938V388.096H738.117C738.508 392.783 742.961 397.139 750.578 398.252L748.625 402.197C742.395 401.104 737.785 398.076 735.48 393.857C733.234 398.135 728.664 401.279 722.531 402.393L720.578 398.447ZM766.945 391.064C766.926 396.475 769.816 402.725 775.656 405.439L772.883 409.346C768.918 407.529 766.105 403.896 764.504 399.639C762.922 404.326 759.992 408.311 755.891 410.244L753 406.299C758.918 403.545 761.906 396.943 761.945 391.064V388.877H754.406V384.814H774.094V388.877H766.945V391.064ZM776.867 416.924V381.377H781.867V394.932H787.102V399.111H781.867V416.924H776.867Z" fill="#D2D2D7"/>
<rect x="829.5" y="362.33" width="173" height="74" rx="37" fill="#F5F5F7"/>
<path d="M864.633 413.33L865.785 406.26H860.219L859.047 413.33H854.672L855.844 406.26H851.938L852.68 401.924H856.547L857.445 396.455H853.578L854.281 392.08H858.168L859.32 385.049H863.695L862.543 392.08H868.09L869.242 385.049H873.617L872.465 392.08H876.352L875.609 396.455H871.742L870.844 401.924H874.75L874.008 406.26H870.141L868.969 413.33H864.633ZM860.922 401.924H866.488L867.387 396.455H861.82L860.922 401.924ZM907.445 381.416V407.354H902.445V381.416H907.445ZM877.562 398.564C883.52 396.572 886.117 391.631 886.117 386.807V383.369H891.312V386.807C891.273 391.514 893.793 396.104 899.633 397.979L897.094 401.885C893.07 400.557 890.316 397.9 888.734 394.521C887.133 398.154 884.301 401.084 880.141 402.51L877.562 398.564ZM883.617 416.299V404.854H888.656V412.314H908.383V416.299H883.617ZM944.672 397.51V401.533H930.922V404.17C937.094 404.619 940.766 406.846 940.805 410.518C940.766 414.639 936.098 416.943 928.422 416.924C920.629 416.943 915.961 414.639 915.961 410.518C915.961 406.826 919.652 404.6 925.961 404.15V401.533H912.25V397.51H944.672ZM913.695 392.275C920.277 391.689 923.91 389.268 924.809 386.807H915.219V382.9H941.742V386.807H932.074C932.934 389.287 936.547 391.689 943.305 392.275L941.547 396.182C934.828 395.537 930.316 393.018 928.422 389.561C926.547 392.998 922.074 395.557 915.336 396.182L913.695 392.275ZM921.039 410.518C921.02 412.236 923.5 413.174 928.422 413.174C933.246 413.174 935.785 412.236 935.805 410.518C935.785 408.721 933.246 407.861 928.422 407.822C923.5 407.861 921.02 408.721 921.039 410.518ZM975.023 381.416V392.314H979.828V396.377H975.023V407.939H970.023V381.416H975.023ZM946.82 389.072V385.127H954.906V381.338H959.867V385.127H967.914V389.072H946.82ZM948.539 397.197C948.539 393.076 952.191 390.322 957.367 390.322C962.523 390.322 966.117 393.076 966.117 397.197C966.117 401.299 962.523 403.994 957.367 403.994C952.191 403.994 948.539 401.299 948.539 397.197ZM951.977 416.299V405.908H956.938V412.314H976.312V416.299H951.977ZM953.422 397.197C953.402 399.15 954.984 400.205 957.367 400.205C959.77 400.205 961.391 399.15 961.391 397.197C961.391 395.225 959.77 394.131 957.367 394.111C954.984 394.131 953.402 395.225 953.422 397.197Z" fill="#6E6E73"/>
<path d="M1057.63 413.33L1058.79 406.26H1053.22L1052.05 413.33H1047.67L1048.84 406.26H1044.94L1045.68 401.924H1049.55L1050.45 396.455H1046.58L1047.28 392.08H1051.17L1052.32 385.049H1056.7L1055.54 392.08H1061.09L1062.24 385.049H1066.62L1065.46 392.08H1069.35L1068.61 396.455H1064.74L1063.84 401.924H1067.75L1067.01 406.26H1063.14L1061.97 413.33H1057.63ZM1053.92 401.924H1059.49L1060.39 396.455H1054.82L1053.92 401.924ZM1100.64 381.416V401.885H1095.68V398.408H1087.67V394.424H1095.68V391.025H1088.04C1085.82 396.65 1080.76 400.537 1072.95 402.666L1070.99 398.721C1079.16 396.592 1083.18 392.666 1083.88 387.783H1072.91V383.799H1089.31C1089.31 384.951 1089.23 386.064 1089.06 387.119H1095.68V381.416H1100.64ZM1076.66 409.502C1076.64 405.107 1081.5 402.334 1088.8 402.314C1096.01 402.334 1100.89 405.107 1100.91 409.502C1100.89 413.955 1096.01 416.768 1088.8 416.768C1081.5 416.768 1076.64 413.955 1076.66 409.502ZM1081.62 409.502C1081.62 411.709 1084.29 412.822 1088.8 412.822C1093.22 412.822 1095.89 411.709 1095.91 409.502C1095.89 407.314 1093.22 406.182 1088.8 406.221C1084.29 406.182 1081.62 407.314 1081.62 409.502ZM1115.17 383.291C1118 383.271 1120.48 384.326 1122.18 386.064H1130.25V381.377H1135.21V402.197H1130.25V397.939H1122.14C1120.45 399.658 1117.98 400.693 1115.17 400.674C1109.78 400.693 1105.68 397.021 1105.72 392.002C1105.68 386.924 1109.78 383.271 1115.17 383.291ZM1110.45 392.002C1110.43 394.736 1112.4 396.475 1115.17 396.455C1117.85 396.475 1119.8 394.736 1119.82 392.002C1119.8 389.17 1117.85 387.529 1115.17 387.549C1112.4 387.529 1110.43 389.17 1110.45 392.002ZM1110.84 409.932C1110.84 405.518 1115.54 402.92 1123.06 402.939C1130.58 402.92 1135.31 405.518 1135.33 409.932C1135.31 414.346 1130.58 416.943 1123.06 416.924C1115.54 416.943 1110.84 414.346 1110.84 409.932ZM1115.72 409.932C1115.72 412.002 1118.36 413.057 1123.06 413.057C1127.87 413.057 1130.43 412.002 1130.45 409.932C1130.43 407.803 1127.87 406.748 1123.06 406.729C1118.36 406.748 1115.72 407.803 1115.72 409.932ZM1124.31 390.01C1124.47 390.635 1124.55 391.318 1124.55 392.002C1124.55 392.686 1124.47 393.33 1124.33 393.955H1130.25V390.01H1124.31ZM1152.95 391.064C1152.93 396.475 1155.82 402.725 1161.66 405.439L1158.88 409.346C1154.92 407.529 1152.11 403.896 1150.5 399.639C1148.92 404.326 1145.99 408.311 1141.89 410.244L1139 406.299C1144.92 403.545 1147.91 396.943 1147.95 391.064V388.877H1140.41V384.814H1160.09V388.877H1152.95V391.064ZM1162.87 416.924V381.377H1167.87V394.932H1173.1V399.111H1167.87V416.924H1162.87Z" fill="#D2D2D7"/>
<rect x="1215.5" y="362.33" width="208" height="74" rx="37" fill="#F5F5F7"/>
<path d="M1250.85 413.33L1252 406.26H1246.43L1245.26 413.33H1240.89L1242.06 406.26H1238.15L1238.89 401.924H1242.76L1243.66 396.455H1239.79L1240.5 392.08H1244.38L1245.54 385.049H1249.91L1248.76 392.08H1254.3L1255.46 385.049H1259.83L1258.68 392.08H1262.57L1261.82 396.455H1257.96L1257.06 401.924H1260.96L1260.22 406.26H1256.36L1255.18 413.33H1250.85ZM1247.14 401.924H1252.7L1253.6 396.455H1248.04L1247.14 401.924ZM1269.6 384.541V392.549H1274.44V384.541H1279.05V408.486H1264.91V384.541H1269.6ZM1269.6 404.502H1274.44V396.455H1269.6V404.502ZM1282.02 415.283V381.885H1286.75V394.932H1289.95V381.377H1294.71V416.924H1289.95V398.994H1286.75V415.283H1282.02ZM1328.43 381.377V417.002H1323.46V402.666H1317.37V398.564H1323.46V392.979H1317.49V388.916H1323.46V381.377H1328.43ZM1299.64 388.291V384.346H1315.61V398.018H1304.68V404.951C1309.07 404.912 1312.96 404.717 1317.45 404.033L1317.84 408.096C1312.53 408.936 1308 409.053 1302.53 409.033H1299.71V394.15H1310.73V388.291H1299.64ZM1361.08 381.377V395.283H1366.32V399.385H1361.08V416.924H1356.16V381.377H1361.08ZM1332.84 390.674V386.689H1340.89V381.924H1345.89V386.689H1353.74V390.674H1332.84ZM1334.29 401.143C1334.27 396.182 1338.13 392.646 1343.39 392.666C1348.56 392.646 1352.45 396.182 1352.45 401.143C1352.45 406.104 1348.56 409.6 1343.39 409.619C1338.13 409.6 1334.27 406.104 1334.29 401.143ZM1339.05 401.143C1339.05 403.896 1340.87 405.537 1343.39 405.518C1345.87 405.537 1347.68 403.896 1347.68 401.143C1347.68 398.408 1345.87 396.729 1343.39 396.689C1340.87 396.729 1339.05 398.408 1339.05 401.143ZM1396.47 391.064V394.971H1371.63V382.627H1376.59V391.064H1396.47ZM1367.57 402.705V398.799H1400.11V402.705H1367.57ZM1371.32 416.143V405.596H1376.32V412.158H1396.71V416.143H1371.32Z" fill="#6E6E73"/>
<path d="M1478.63 413.33L1479.79 406.26H1474.22L1473.05 413.33H1468.67L1469.84 406.26H1465.94L1466.68 401.924H1470.55L1471.45 396.455H1467.58L1468.28 392.08H1472.17L1473.32 385.049H1477.7L1476.54 392.08H1482.09L1483.24 385.049H1487.62L1486.46 392.08H1490.35L1489.61 396.455H1485.74L1484.84 401.924H1488.75L1488.01 406.26H1484.14L1482.97 413.33H1478.63ZM1474.92 401.924H1480.49L1481.39 396.455H1475.82L1474.92 401.924ZM1505.47 391.064C1505.45 396.807 1508.42 402.959 1514.38 405.439L1511.68 409.346C1507.5 407.568 1504.61 404.033 1503.01 399.736C1501.41 404.404 1498.46 408.311 1494.26 410.244L1491.41 406.299C1497.3 403.662 1500.35 397.08 1500.35 391.064V388.877H1492.81V384.814H1512.89V388.877H1505.47V391.064ZM1516.41 416.924V381.377H1521.45V416.924H1516.41ZM1555.23 397.275V401.221H1544.92V408.799H1558.79V412.861H1526.25V408.799H1539.96V401.221H1530.08V383.877H1554.96V387.861H1535.08V397.275H1555.23ZM1573.95 391.064C1573.93 396.475 1576.82 402.725 1582.66 405.439L1579.88 409.346C1575.92 407.529 1573.11 403.896 1571.5 399.639C1569.92 404.326 1566.99 408.311 1562.89 410.244L1560 406.299C1565.92 403.545 1568.91 396.943 1568.95 391.064V388.877H1561.41V384.814H1581.09V388.877H1573.95V391.064ZM1583.87 416.924V381.377H1588.87V394.932H1594.1V399.111H1588.87V416.924H1583.87Z" fill="#D2D2D7"/>
<rect x="1636.5" y="362.33" width="173" height="74" rx="37" fill="#F5F5F7"/>
<path d="M1671.63 413.33L1672.79 406.26H1667.22L1666.05 413.33H1661.67L1662.84 406.26H1658.94L1659.68 401.924H1663.55L1664.45 396.455H1660.58L1661.28 392.08H1665.17L1666.32 385.049H1670.7L1669.54 392.08H1675.09L1676.24 385.049H1680.62L1679.46 392.08H1683.35L1682.61 396.455H1678.74L1677.84 401.924H1681.75L1681.01 406.26H1677.14L1675.97 413.33H1671.63ZM1667.92 401.924H1673.49L1674.39 396.455H1668.82L1667.92 401.924ZM1714.64 381.377V401.689H1709.68V391.611H1703V387.588H1709.68V381.377H1714.64ZM1684.41 397.354C1690.38 395.518 1692.94 391.064 1692.96 386.377V382.979H1698V386.689C1697.98 390.908 1700.46 395.088 1706.09 396.768L1703.51 400.674C1699.64 399.404 1696.96 396.943 1695.44 393.838C1693.88 397.236 1691.09 399.912 1686.98 401.26L1684.41 397.354ZM1690.73 416.533V403.252H1714.64V416.533H1690.73ZM1695.73 412.549H1709.76V407.119H1695.73V412.549ZM1730.66 390.322C1730.64 396.084 1732.24 402.021 1737.1 405.127L1734.41 408.994C1731.32 407.139 1729.39 404.053 1728.25 400.42C1726.98 404.443 1724.86 407.822 1721.63 409.775L1718.59 406.104C1723.86 402.842 1725.81 396.572 1725.81 390.557V384.424H1730.66V390.322ZM1733.35 397.432V393.369H1737.96V381.885H1742.61V415.283H1737.96V397.432H1733.35ZM1745.3 416.924V381.377H1750.07V416.924H1745.3ZM1782.02 381.416V392.314H1786.83V396.377H1782.02V407.939H1777.02V381.416H1782.02ZM1753.82 389.072V385.127H1761.91V381.338H1766.87V385.127H1774.91V389.072H1753.82ZM1755.54 397.197C1755.54 393.076 1759.19 390.322 1764.37 390.322C1769.52 390.322 1773.12 393.076 1773.12 397.197C1773.12 401.299 1769.52 403.994 1764.37 403.994C1759.19 403.994 1755.54 401.299 1755.54 397.197ZM1758.98 416.299V405.908H1763.94V412.314H1783.31V416.299H1758.98ZM1760.42 397.197C1760.4 399.15 1761.98 400.205 1764.37 400.205C1766.77 400.205 1768.39 399.15 1768.39 397.197C1768.39 395.225 1766.77 394.131 1764.37 394.111C1761.98 394.131 1760.4 395.225 1760.42 397.197Z" fill="#6E6E73"/>
<path d="M1864.63 413.33L1865.79 406.26H1860.22L1859.05 413.33H1854.67L1855.84 406.26H1851.94L1852.68 401.924H1856.55L1857.45 396.455H1853.58L1854.28 392.08H1858.17L1859.32 385.049H1863.7L1862.54 392.08H1868.09L1869.24 385.049H1873.62L1872.46 392.08H1876.35L1875.61 396.455H1871.74L1870.84 401.924H1874.75L1874.01 406.26H1870.14L1868.97 413.33H1864.63ZM1860.92 401.924H1866.49L1867.39 396.455H1861.82L1860.92 401.924ZM1910.22 408.799V412.861H1877.68V408.799H1891.43V401.846H1896.39V408.799H1910.22ZM1878.77 399.189C1886.88 398.213 1890.9 394.189 1891.35 390.244H1880.49V386.26H1891.43V381.807H1896.39V386.26H1907.37V390.244H1896.51C1896.92 394.189 1900.96 398.213 1909.05 399.189L1907.25 403.057C1900.88 402.236 1896.29 399.6 1893.89 395.928C1891.53 399.6 1886.96 402.236 1880.61 403.057L1878.77 399.189ZM1942.37 381.416V402.002H1937.37V400.869H1930.92V397.861H1937.37V381.416H1942.37ZM1912.25 393.916C1919.12 393.936 1927.64 393.896 1935.26 393.174L1935.49 396.26C1932.35 396.67 1929.12 396.943 1925.96 397.119V402.08H1921.04V397.295C1918.13 397.373 1915.34 397.373 1912.76 397.354L1912.25 393.916ZM1914.67 387.236C1914.67 384.033 1918.27 381.904 1923.7 381.885C1928.99 381.904 1932.62 384.033 1932.64 387.236C1932.62 390.537 1928.99 392.568 1923.7 392.549C1918.27 392.568 1914.67 390.537 1914.67 387.236ZM1917.33 406.416V403.057H1942.37V411.377H1922.37V413.213H1943.19V416.689H1917.48V408.174H1937.41V406.416H1917.33ZM1919.4 387.236C1919.36 388.545 1921 389.287 1923.7 389.307C1926.31 389.287 1927.97 388.545 1927.99 387.236C1927.97 385.928 1926.31 385.146 1923.7 385.166C1921 385.146 1919.36 385.928 1919.4 387.236ZM1959.95 391.064C1959.93 396.475 1962.82 402.725 1968.66 405.439L1965.88 409.346C1961.92 407.529 1959.11 403.896 1957.5 399.639C1955.92 404.326 1952.99 408.311 1948.89 410.244L1946 406.299C1951.92 403.545 1954.91 396.943 1954.95 391.064V388.877H1947.41V384.814H1967.09V388.877H1959.95V391.064ZM1969.87 416.924V381.377H1974.87V394.932H1980.1V399.111H1974.87V416.924H1969.87Z" fill="#D2D2D7"/>
</g>
<defs>
<clipPath id="clip0_263_810">
<rect width="1920" height="516" fill="white" transform="translate(0 0.330078)"/>
</clipPath>
</defs>
</svg>
