<svg width="24" height="24" viewBox="0 0 24 24" fill="none" xmlns="http://www.w3.org/2000/svg">
<path fill-rule="evenodd" clip-rule="evenodd" d="M22.8827 23.9986C23.4995 23.9986 23.9986 23.4995 23.9986 22.8827H23.9971V1.11587C23.9971 0.49905 23.498 0 22.8812 0H1.11587C0.49905 0 0 0.49905 0 1.11587V22.8827C0 23.4995 0.49905 23.9986 1.11587 23.9986H22.8827ZM20.3334 7.07497H18.4697C18.4697 7.07497 16.5574 6.91157 16.5574 8.66045V11.0747H20.1303L19.6842 14.6682H16.5574V23.9985H12.8344V14.6682H9.63696V11.0747H12.8344V8.32039C12.8344 8.32039 12.6651 3.53304 17.3156 3.63462C18.6022 3.66406 19.5856 3.68909 20.3334 3.71117V7.07497Z" fill="#2A3642"/>
</svg>
