<svg width="457" height="368" viewBox="0 0 457 368" fill="none" xmlns="http://www.w3.org/2000/svg">
<path d="M431 111.877V328C431 347.33 415.33 363 396 363H61C41.67 363 26 347.33 26 328V40C26 20.67 41.67 5 61 5H174.452C185.57 5 196.027 10.2823 202.624 19.2315L231.632 58.5799C240.114 70.0859 253.559 76.8775 267.853 76.8775H396C415.33 76.8775 431 92.5475 431 111.877Z" fill="#A6CAFF" stroke="#3B7DED" stroke-width="10"/>
<path d="M448.525 184.931L436.742 330.818C435.274 348.996 420.093 363 401.856 363H60.8624C42.6491 363 27.4799 349.032 25.9811 330.88L8.55784 119.88C6.87361 99.4838 22.9732 82 43.4391 82H157.082C168.772 82 179.691 87.8363 186.185 97.5564L205.931 127.112C214.281 139.61 228.319 147.113 243.349 147.113H413.639C434.08 147.113 450.171 164.556 448.525 184.931Z" fill="white" stroke="#3B7DED" stroke-width="10"/>
<rect x="340" y="302" width="102" height="10" rx="5" fill="#3B7DED"/>
</svg>
