<svg width="24" height="24" viewBox="0 0 24 24" fill="none" xmlns="http://www.w3.org/2000/svg">
<path fill-rule="evenodd" clip-rule="evenodd" d="M11.9993 0C8.74099 0 8.33175 0.0137068 7.05114 0.07245C5.77446 0.131193 4.90114 0.332878 4.13944 0.630511C3.35032 0.937933 2.68065 1.34718 2.01489 2.01489C1.34718 2.68261 0.937933 3.35032 0.630511 4.13944C0.334836 4.9031 0.131193 5.77446 0.07245 7.05114C0.0137068 8.33175 0 8.74099 0 11.9993C0 15.2576 0.0137068 15.6668 0.07245 16.9474C0.131193 18.2241 0.332878 19.0974 0.630511 19.8591C0.937933 20.6482 1.34718 21.3179 2.01489 21.9837C2.68261 22.6514 3.35032 23.0606 4.13944 23.3681C4.9031 23.6637 5.77446 23.8674 7.05114 23.9261C8.33175 23.9849 8.73903 23.9986 11.9993 23.9986C15.2595 23.9986 15.6668 23.9849 16.9474 23.9261C18.2241 23.8674 19.0974 23.6657 19.8591 23.3681C20.6482 23.0606 21.3179 22.6514 21.9837 21.9837C22.6514 21.316 23.0606 20.6482 23.3681 19.8591C23.6637 19.0955 23.8674 18.2241 23.9261 16.9474C23.9849 15.6668 23.9986 15.2595 23.9986 11.9993C23.9986 8.73903 23.9849 8.33175 23.9261 7.05114C23.8674 5.77446 23.6657 4.90114 23.3681 4.13944C23.0606 3.35032 22.6514 2.68065 21.9837 2.01489C21.316 1.34718 20.6482 0.937933 19.8591 0.630511C19.0955 0.334836 18.2241 0.131193 16.9474 0.07245C15.6668 0.0137068 15.2576 0 11.9993 0ZM11.9993 5.83727C8.59613 5.83727 5.83716 8.59624 5.83716 11.9994C5.83716 15.4026 8.59613 18.1616 11.9993 18.1616C15.4025 18.1616 18.1615 15.4026 18.1615 11.9994C18.1615 8.59624 15.4025 5.83727 11.9993 5.83727ZM11.9993 15.9998C9.79058 15.9998 7.99891 14.2082 7.99891 11.9994C7.99891 9.79068 9.79058 7.99902 11.9993 7.99902C14.2081 7.99902 15.9997 9.79068 15.9997 11.9994C15.9997 14.2082 14.2081 15.9998 11.9993 15.9998ZM19.8428 5.5941C19.8428 6.38895 19.1984 7.03331 18.4036 7.03331C17.6087 7.03331 16.9644 6.38895 16.9644 5.5941C16.9644 4.79925 17.6087 4.15489 18.4036 4.15489C19.1984 4.15489 19.8428 4.79925 19.8428 5.5941Z" fill="#2A3642"/>
</svg>
