<svg width="24" height="24" viewBox="0 0 24 24" fill="none" xmlns="http://www.w3.org/2000/svg">
<path fill-rule="evenodd" clip-rule="evenodd" d="M22.223 0H1.76978C0.794245 0 0 0.774054 0 1.73083V22.2677C0 23.2231 0.794245 24 1.76978 24H22.223C23.2014 24 23.9986 23.2245 23.9986 22.2677V1.73083C23.9986 0.774054 23.2029 0 22.223 0ZM3.55472 8.9961H7.11731V20.4486H3.55472V8.9961ZM5.33745 3.30292C6.47558 3.30292 7.40076 4.22804 7.40076 5.36754C7.40076 6.50704 6.47702 7.43216 5.33745 7.43216C4.19357 7.43216 3.27271 6.50704 3.27271 5.36754C3.27271 4.22804 4.19501 3.30292 5.33745 3.30292ZM12.7642 8.99607H9.35266V20.4457H12.9081V14.7813C12.9081 13.2879 13.1915 11.8405 15.0433 11.8405C16.8692 11.8405 16.8922 13.5498 16.8922 14.8777V20.4472H20.4519V14.167C20.4519 11.0823 19.7858 8.7112 16.1814 8.7112C14.4491 8.7112 13.2879 9.66078 12.8131 10.5614H12.7642V8.99607Z" fill="#2A3642"/>
</svg>
