<svg width="2728" height="800" viewBox="0 0 2728 800" fill="none" xmlns="http://www.w3.org/2000/svg">
<g clip-path="url(#clip0_1_13)">
<path fill-rule="evenodd" clip-rule="evenodd" d="M217.28 222.676L7 695.138H170L381.382 242.902C388.568 227.527 410.432 227.527 417.618 242.901L629 695.138H793L582.72 222.676C512.293 64.4412 287.707 64.4413 217.28 222.676Z" fill="#356DFC"/>
<rect x="652" y="118.138" width="116" height="116" rx="58" fill="#356DFC"/>
<path d="M1465.4 248C1447.2 238.667 1427.83 230.733 1407.3 224.2C1386.77 217.2 1367.17 213.7 1348.5 213.7C1323.3 213.7 1303.23 219.3 1288.3 230.5C1273.83 241.7 1266.6 257.1 1266.6 276.7C1266.6 290.7 1271.73 303.067 1282 313.8C1292.27 324.067 1305.33 333.167 1321.2 341.1C1337.07 348.567 1353.87 355.8 1371.6 362.8C1387 368.4 1402.17 375.167 1417.1 383.1C1432.5 390.567 1446.27 399.9 1458.4 411.1C1470.53 422.3 1480.1 436.3 1487.1 453.1C1494.57 469.433 1498.3 489.733 1498.3 514C1498.3 540.6 1491.53 565.1 1478 587.5C1464.47 609.433 1445.1 626.933 1419.9 640C1394.7 653.067 1363.9 659.6 1327.5 659.6C1306.5 659.6 1285.73 657.267 1265.2 652.6C1245.13 647.933 1226 641.633 1207.8 633.7C1189.6 625.3 1172.8 615.967 1157.4 605.7L1193.8 542C1205 550.4 1217.83 558.1 1232.3 565.1C1246.77 572.1 1261.7 577.7 1277.1 581.9C1292.5 585.633 1306.97 587.5 1320.5 587.5C1334.97 587.5 1349.2 585.167 1363.2 580.5C1377.67 575.833 1389.57 568.133 1398.9 557.4C1408.7 546.667 1413.6 532.433 1413.6 514.7C1413.6 500.233 1409.4 487.867 1401 477.6C1392.6 467.333 1381.63 458.467 1368.1 451C1355.03 443.067 1340.57 436.067 1324.7 430C1308.83 423.933 1292.5 417.167 1275.7 409.7C1259.37 402.233 1244.2 393.133 1230.2 382.4C1216.2 371.2 1204.77 357.667 1195.9 341.8C1187.03 325.933 1182.6 306.333 1182.6 283C1182.6 255 1189.13 230.733 1202.2 210.2C1215.27 189.667 1233.23 173.333 1256.1 161.2C1279.43 149.067 1306.27 142.533 1336.6 141.6C1372.53 141.6 1403.1 146.033 1428.3 154.9C1453.97 163.3 1476.6 173.567 1496.2 185.7L1465.4 248ZM1713.92 661.7C1685.92 661.7 1660.49 655.867 1637.62 644.2C1615.22 632.533 1597.49 615.267 1584.42 592.4C1571.36 569.067 1564.82 540.367 1564.82 506.3C1564.82 472.7 1571.59 444 1585.12 420.2C1599.12 395.933 1617.32 377.267 1639.72 364.2C1662.59 351.133 1687.32 344.6 1713.92 344.6C1742.39 344.6 1765.26 350.2 1782.52 361.4C1800.26 372.6 1814.02 385.9 1823.82 401.3L1819.62 412.5L1827.32 357.9H1899.42V654H1821.02V581.9L1828.72 600.8C1826.86 603.6 1823.12 608.267 1817.52 614.8C1811.92 620.867 1804.22 627.633 1794.42 635.1C1784.62 642.567 1772.96 648.867 1759.42 654C1746.36 659.133 1731.19 661.7 1713.92 661.7ZM1735.62 597.3C1749.62 597.3 1762.22 594.733 1773.42 589.6C1785.09 584.467 1794.89 577.233 1802.82 567.9C1811.22 558.567 1817.29 547.367 1821.02 534.3V469.9C1817.29 457.767 1811.22 447.267 1802.82 438.4C1794.42 429.067 1784.16 421.833 1772.02 416.7C1760.36 411.567 1747.29 409 1732.82 409C1716.96 409 1702.26 412.967 1688.72 420.9C1675.19 428.833 1664.22 439.8 1655.82 453.8C1647.89 467.8 1643.92 483.9 1643.92 502.1C1643.92 519.833 1648.12 535.933 1656.52 550.4C1664.92 564.867 1676.12 576.3 1690.12 584.7C1704.12 593.1 1719.29 597.3 1735.62 597.3ZM2007.68 108H2086.08V654H2007.68V108ZM2264.32 357.9L2271.32 418.1L2268.52 413.2C2279.72 391.733 2294.89 374.933 2314.02 362.8C2333.62 350.667 2356.25 344.6 2381.92 344.6C2398.25 344.6 2412.72 347.167 2425.32 352.3C2437.92 357.433 2448.42 364.667 2456.82 374C2465.69 383.333 2471.52 395 2474.32 409L2470.12 410.4C2482.25 390.333 2497.89 374.467 2517.02 362.8C2536.15 350.667 2556.45 344.6 2577.92 344.6C2606.85 344.6 2629.95 353 2647.22 369.8C2664.49 386.133 2673.35 407.367 2673.82 433.5V654H2596.12V464.3C2595.65 449.833 2592.62 437.933 2587.02 428.6C2581.42 418.8 2570.92 413.433 2555.52 412.5C2538.72 412.5 2524.25 417.867 2512.12 428.6C2499.99 438.867 2490.42 452.4 2483.42 469.2C2476.89 485.533 2473.62 503.033 2473.62 521.7V654H2394.52V464.3C2394.05 449.833 2390.79 437.933 2384.72 428.6C2378.65 418.8 2367.92 413.433 2352.52 412.5C2336.19 412.5 2321.95 417.867 2309.82 428.6C2297.69 438.867 2288.35 452.4 2281.82 469.2C2275.29 485.533 2272.02 502.8 2272.02 521V654H2193.62V357.9H2264.32Z" fill="#111111"/>
</g>
<defs>
<clipPath id="clip0_1_13">
<rect width="2728" height="800" fill="white"/>
</clipPath>
</defs>
</svg>
