<svg width="147" height="20" viewBox="0 0 147 20" fill="none" xmlns="http://www.w3.org/2000/svg">
<path fill-rule="evenodd" clip-rule="evenodd" d="M35.38 15.48C36.6 17.26 38.68 18.24 40.98 18.24C42.6 18.24 43.9 17.82 44.9 16.98C45.9 16.14 46.4 15.06 46.4 13.74C46.4 12.1 45.56 10.88 43.88 10.06C43.5 9.87999 42.9 9.61999 42.08 9.27999L40.62 8.63999C39.82 8.23999 39.42 7.75999 39.42 7.17999C39.42 6.31999 40.14 5.75999 41.32 5.75999C42.42 5.75999 43.74 6.25999 44.56 7.13999L46.14 4.97999C44.82 3.63999 43.2 2.97999 41.28 2.97999C39.8 2.97999 38.58 3.39999 37.64 4.21999C36.7 5.03999 36.24 6.05999 36.24 7.29999C36.24 8.85999 37.02 10.08 38.58 10.98C38.98 11.2 39.56 11.48 40.32 11.78C40.4383 11.8255 40.5496 11.8682 40.6542 11.9083C41.2391 12.1327 41.6103 12.2751 41.78 12.36C42.68 12.78 43.12 13.3 43.12 13.9C43.12 14.84 42.22 15.48 41 15.48C39.48 15.48 38.04 14.76 37.08 13.42L35.38 15.48ZM56.7089 7.09999V8.39999C55.7489 7.33999 54.5889 6.81999 53.2289 6.81999C51.6889 6.81999 50.3889 7.35999 49.3689 8.43999C48.3489 9.49999 47.8289 10.86 47.8289 12.5C47.8289 14.14 48.3289 15.52 49.3489 16.62C50.3689 17.72 51.6689 18.26 53.2289 18.26C54.6089 18.26 55.7689 17.76 56.7089 16.74V18H59.3889V7.09999H56.7089ZM55.8689 10.32C56.4489 10.94 56.7489 11.68 56.7489 12.54C56.7489 13.42 56.4489 14.16 55.8689 14.78C55.2889 15.4 54.5689 15.7 53.6889 15.7C52.8089 15.7 52.0889 15.4 51.5089 14.78C50.9289 14.16 50.6489 13.42 50.6489 12.54C50.6489 11.68 50.9289 10.94 51.4889 10.32C52.0689 9.69999 52.7889 9.39999 53.6889 9.39999C54.5689 9.39999 55.2889 9.69999 55.8689 10.32ZM64.7445 18V2.79999H61.9245V18H64.7445ZM83.6361 8.01999C82.8161 7.19999 81.7561 6.79999 80.4561 6.79999C78.8361 6.79999 77.3561 7.51999 76.5561 8.71999C75.9761 7.45999 74.7161 6.79999 73.3561 6.79999C71.9361 6.77999 70.6561 7.51999 70.0361 8.65999V7.09999H67.2761V18H70.0961V12.04C70.0961 10.42 71.0961 9.39999 72.4761 9.39999C73.8161 9.39999 74.6761 10.34 74.6761 11.96V18H77.4961V12.02C77.4961 10.42 78.4761 9.39999 79.8961 9.39999C81.1961 9.39999 82.0761 10.28 82.0761 11.94V18H84.8961V11.42C84.8961 9.95999 84.4761 8.83999 83.6361 8.01999ZM93.9566 16.12C95.4166 17.52 97.2366 18.22 99.3766 18.22C102.117 18.22 104.537 16.94 105.897 15.08L103.857 13.22C102.717 14.66 101.277 15.38 99.5566 15.38C98.2166 15.38 97.0966 14.94 96.1966 14.04C95.2966 13.14 94.8566 12.02 94.8566 10.66C94.8566 9.25999 95.3166 8.09999 96.2166 7.19999C97.1166 6.27999 98.2366 5.81999 99.5766 5.81999C101.237 5.81999 102.637 6.53999 103.797 7.95999L105.777 6.01999C104.477 4.17999 102.077 2.95999 99.4166 2.95999C97.2966 2.95999 95.4966 3.67999 93.9966 5.13999C92.5166 6.57999 91.7766 8.41999 91.7766 10.66C91.7766 12.88 92.4966 14.7 93.9566 16.12ZM110.37 18V2.79999H107.55V18H110.37ZM113.121 5.37999C113.781 6.03999 114.941 6.03999 115.601 5.37999C116.261 4.71999 116.261 3.55999 115.601 2.91999C114.941 2.25999 113.781 2.25999 113.121 2.91999C112.461 3.55999 112.461 4.71999 113.121 5.37999ZM115.761 18V7.09999H112.941V18H115.761ZM118.272 18H121.092V12.16C121.092 10.54 122.092 9.39999 123.592 9.39999C124.972 9.39999 125.892 10.36 125.892 12.1V18H128.712V11.34C128.712 9.87999 128.292 8.75999 127.472 7.97999C126.652 7.19999 125.632 6.79999 124.452 6.79999C122.912 6.79999 121.612 7.55999 121.032 8.61999V7.09999H118.272V18ZM131.344 5.37999C132.004 6.03999 133.164 6.03999 133.824 5.37999C134.484 4.71999 134.484 3.55999 133.824 2.91999C133.164 2.25999 132.004 2.25999 131.344 2.91999C130.684 3.55999 130.684 4.71999 131.344 5.37999ZM133.984 18V7.09999H131.164V18H133.984ZM137.535 16.64C138.615 17.7 139.995 18.24 141.695 18.24C143.935 18.24 145.875 17.12 146.815 15.36L144.535 14.02C144.055 14.98 142.895 15.66 141.755 15.66C140.895 15.66 140.155 15.36 139.575 14.78C138.995 14.18 138.715 13.44 138.715 12.54C138.715 11.66 139.015 10.92 139.595 10.34C140.175 9.73999 140.915 9.43999 141.815 9.43999C142.995 9.43999 143.935 9.99999 144.595 11.1L146.855 9.85999C145.955 7.91999 143.995 6.81999 141.775 6.81999C140.055 6.81999 138.655 7.35999 137.555 8.43999C136.455 9.49999 135.915 10.88 135.915 12.54C135.915 14.2 136.455 15.58 137.535 16.64Z" fill="#1D1D1F"/>
<g clip-path="url(#clip0_794_569)">
<path d="M18.2 2.68513C17.3727 0.854907 15.7832 0 13.1832 0C10.5832 0 8.97591 0.824804 8.10136 2.67911L0 20H5.27091L12.4327 4.65984C12.5568 4.42505 12.7282 4.27453 13.1536 4.27453C13.6027 4.27453 13.7445 4.45515 13.8332 4.6478L20.6995 20H26L18.2 2.68513Z" fill="#00CBA1"/>
<path d="M23.3586 4.1541C24.4341 4.1541 25.3027 3.26909 25.3027 2.17336C25.3027 1.07764 24.4341 0.192627 23.3586 0.192627C22.2832 0.192627 21.4146 1.07764 21.4146 2.17336C21.4146 3.26909 22.2832 4.1541 23.3586 4.1541Z" fill="#00CBA1"/>
</g>
<defs>
<clipPath id="clip0_794_569">
<rect width="26" height="20" fill="white"/>
</clipPath>
</defs>
</svg>
