<svg width="84" height="84" viewBox="0 0 84 84" fill="none" xmlns="http://www.w3.org/2000/svg">
<g clip-path="url(#clip0_167_235)">
<path fill-rule="evenodd" clip-rule="evenodd" d="M20 0C8.95431 0 0 8.9543 0 20V64C0 75.0457 8.9543 84 20 84H64C75.0457 84 84 75.0457 84 64V20C84 8.95431 75.0457 0 64 0H20ZM50.8 29.8499C49.4 26.8099 46.71 25.3899 42.31 25.3899C37.91 25.3899 35.19 26.7599 33.71 29.8399L19.99 58.6099H28.91L41.03 33.1399C41.24 32.7499 41.53 32.4999 42.25 32.4999C43.01 32.4999 43.25 32.7999 43.4 33.1199L55.02 58.6199H63.99L50.79 29.8599L50.8 29.8499ZM59.53 32.29C61.35 32.29 62.82 30.82 62.82 29C62.82 27.18 61.35 25.71 59.53 25.71C57.71 25.71 56.24 27.18 56.24 29C56.24 30.82 57.71 32.29 59.53 32.29Z" fill="url(#paint0_linear_167_235)"/>
</g>
<defs>
<linearGradient id="paint0_linear_167_235" x1="42" y1="0" x2="42" y2="84" gradientUnits="userSpaceOnUse">
<stop stop-color="#00E6A5"/>
<stop offset="1" stop-color="#01AF9C"/>
</linearGradient>
<clipPath id="clip0_167_235">
<rect width="84" height="84" fill="white"/>
</clipPath>
</defs>
</svg>
